<?xml version="1.0" encoding="UTF-8"?>
<svg version="1.1" viewBox="0 0 1600 1600" width="1280" height="1280" xmlns="http://www.w3.org/2000/svg">
<path transform="translate(695 70.7)" d="m0 0c0.823 0.00583 1.65 0.0117 2.49 0.0177 0.872-0.00171 1.74-0.00342 2.64-0.00518 2.94-0.00331 5.87 0.00773 8.81 0.0186 2.1 5.64e-4 4.2 2.48e-4 6.3-8.85e-4 5.71-5.76e-4 11.4 0.0112 17.1 0.0251 5.96 0.0125 11.9 0.0137 17.9 0.0161 11.3 0.00623 22.6 0.0227 33.9 0.0427 12.9 0.0223 25.7 0.0333 38.6 0.0434 26.5 0.0209 52.9 0.0561 79.4 0.101 0.66 2.31 1.32 4.62 2 7 17.8 0.33 35.6 0.66 54 1 0.66 2.31 1.32 4.62 2 7 9.99 1.26 20 1.09 30 1 0.66 2.31 1.32 4.62 2 7 0.904 0.0251 1.81 0.0501 2.74 0.0759 3.34 0.0949 6.68 0.194 10 0.296 1.45 0.0434 2.9 0.0851 4.34 0.125 2.08 0.0576 4.16 0.121 6.23 0.186 1.88 0.055 1.88 0.055 3.79 0.111 2.87 0.205 2.87 0.205 3.87 1.21 0.0408 2 0.0425 4 0 6 1.07 0.0606 2.14 0.121 3.25 0.184 1.4 0.0844 2.79 0.169 4.19 0.254 0.707 0.0393 1.41 0.0786 2.14 0.119 5.31 0.33 5.31 0.33 6.42 1.44 0.0408 2 0.0425 4 0 6 0.692 0.0251 1.38 0.0501 2.1 0.0759 3.11 0.116 6.23 0.238 9.34 0.362 1.09 0.0393 2.18 0.0786 3.3 0.119 1.55 0.0628 1.55 0.0628 3.13 0.127 0.958 0.0367 1.92 0.0733 2.9 0.111 2.22 0.205 2.22 0.205 3.22 1.21v6c7.59 0.33 15.2 0.66 23 1 1.49 3.47 1.49 3.47 3 7 0.927 0.0606 1.85 0.121 2.81 0.184 1.8 0.126 1.8 0.126 3.63 0.254 1.19 0.0812 2.39 0.162 3.62 0.246 2.94 0.316 2.94 0.316 3.94 1.32v6c4.95 0.33 9.9 0.66 15 1 0.99 2.31 1.98 4.62 3 7 0.927 0.0606 1.85 0.121 2.81 0.184 1.2 0.0838 2.4 0.168 3.63 0.254 1.19 0.0812 2.39 0.162 3.62 0.246 2.94 0.316 2.94 0.316 3.94 1.32v6c4.95 0.33 9.9 0.66 15 1 0.371 1.11 0.743 2.23 1.12 3.38 0.754 1.96 0.754 1.96 1.88 3.62 1.99 0.691 3.99 1.36 6 2 1.18 3.06 1.18 3.06 2 6 0.927 0.0606 1.85 0.121 2.81 0.184 1.2 0.0838 2.4 0.168 3.63 0.254 1.19 0.0812 2.39 0.162 3.62 0.246 2.94 0.316 2.94 0.316 3.94 1.32v6c4.95 0.33 9.9 0.66 15 1 0.371 1.11 0.743 2.23 1.12 3.38 0.754 1.96 0.754 1.96 1.88 3.62 1.99 0.691 3.99 1.36 6 2 0.66 1.98 1.32 3.96 2 6 6.43 0.495 6.43 0.495 13 1 0.371 1.11 0.742 2.23 1.12 3.38 0.754 1.96 0.754 1.96 1.88 3.62 1.99 0.691 3.99 1.36 6 2 0.66 1.98 1.32 3.96 2 6 4.29 0.33 8.58 0.66 13 1 0.588 1.67 0.588 1.67 1.19 3.38 1.28 3.14 1.28 3.14 4.31 4.69 0.825 0.309 1.65 0.619 2.5 0.938 0.495 1.01 0.99 2.02 1.5 3.06 0.495 0.969 0.99 1.94 1.5 2.94 0.825 0.144 1.65 0.289 2.5 0.438 0.825 0.186 1.65 0.371 2.5 0.562 0.712 1.67 0.712 1.67 1.44 3.38 1.9 4.41 3.37 4.66 7.56 6.62 1.18 2.59 1.18 2.59 2 5 0.927 0.0606 1.85 0.121 2.81 0.184 1.2 0.0838 2.4 0.168 3.63 0.254 1.19 0.0812 2.39 0.162 3.62 0.246 2.94 0.316 2.94 0.316 3.94 1.32 0.0408 2 0.0425 4 0 6 1.09 0.206 2.19 0.412 3.31 0.625 4.57 1.7 4.7 3.13 6.69 7.38 0.825 0.144 1.65 0.289 2.5 0.438 0.825 0.186 1.65 0.371 2.5 0.562 0.474 1.13 0.949 2.27 1.44 3.44 0.516 1.18 1.03 2.35 1.56 3.56 1.99 0.691 3.99 1.36 6 2 0.704 1.99 1.37 3.99 2 6 1.66 0.681 3.33 1.35 5 2 0.712 1.49 0.712 1.49 1.44 3 1.27 3.3 1.27 3.3 4.62 4 0.969 0.33 1.94 0.66 2.94 1 0.704 1.99 1.37 3.99 2 6 1.66 0.681 3.33 1.35 5 2 0.712 1.49 0.712 1.49 1.44 3 1.27 3.3 1.27 3.3 4.62 4 0.969 0.33 1.94 0.66 2.94 1 0.667 2 1.33 4 2 6 0.99 0.33 1.98 0.66 3 1 0.99 0.33 1.98 0.66 3 1 1.38 3.12 1.38 3.12 2 6 0.763 0.0206 1.53 0.0412 2.31 0.0625 0.887 0.309 1.77 0.619 2.69 0.938 0.474 1.13 0.949 2.27 1.44 3.44 0.516 1.18 1.03 2.35 1.56 3.56 1.98 0.66 3.96 1.32 6 2v14c1.09 0.0206 2.19 0.0412 3.31 0.0625 1.22 0.309 2.43 0.619 3.69 0.938 1.05 2.31 2.05 4.65 3 7 1.99 0.691 3.99 1.36 6 2 1.38 3.12 1.38 3.12 2 6 0.763 0.0206 1.53 0.0412 2.31 0.0625 0.887 0.309 1.77 0.619 2.69 0.938l1.44 3.44c0.516 1.18 1.03 2.35 1.56 3.56 1.98 0.66 3.96 1.32 6 2v14c1.09 0.0206 2.19 0.0412 3.31 0.0625 1.22 0.309 2.43 0.619 3.69 0.938 1.05 2.31 2.05 4.65 3 7 1.98 0.66 3.96 1.32 6 2v14c1.09 0.0206 2.19 0.0412 3.31 0.0625 1.22 0.309 2.43 0.619 3.69 0.938 1.05 2.31 2.05 4.65 3 7 1.98 0.66 3.96 1.32 6 2v14c1.13 0.144 2.27 0.289 3.44 0.438 3.56 0.562 3.56 0.562 4.56 1.56 0.235 2.35 0.414 4.71 0.562 7.06 0.0838 1.29 0.168 2.58 0.254 3.91 0.0606 0.999 0.121 2 0.184 3.03 2.31 0.66 4.62 1.32 7 2 0.33 4.62 0.66 9.24 1 14 2.31 0.66 4.62 1.32 7 2 0.33 4.62 0.66 9.24 1 14 2.31 0.66 4.62 1.32 7 2 0.33 4.62 0.66 9.24 1 14 2.31 0.66 4.62 1.32 7 2 0.33 4.62 0.66 9.24 1 14 2.31 0.66 4.62 1.32 7 2 0.33 4.62 0.66 9.24 1 14 2.31 0.66 4.62 1.32 7 2v22c2.31 0.33 4.62 0.66 7 1 1 1 1 1 1.11 3.13-0.00786 1.37-0.00786 1.37-0.0159 2.78-0.00483 1.48-0.00483 1.48-0.00977 3-0.00838 1.04-0.0168 2.08-0.0254 3.15-0.00451 1.04-0.00902 2.09-0.0137 3.17-0.0118 2.59-0.0283 5.18-0.0488 7.77 1.13 0.144 2.27 0.289 3.44 0.438 3.56 0.562 3.56 0.562 4.56 1.56 0.157 1.63 0.251 3.27 0.316 4.91 0.0419 0.989 0.0838 1.98 0.127 3 0.059 1.56 0.059 1.56 0.119 3.15 0.0648 1.57 0.0648 1.57 0.131 3.17 0.106 2.59 0.208 5.18 0.307 7.77 2.31 0.66 4.62 1.32 7 2 0.33 9.9 0.66 19.8 1 30 1.98 0.33 3.96 0.66 6 1 1.46 2.93 1.09 5.5 1.06 8.77-0.00568 1.01-0.00568 1.01-0.0115 2.03-0.0163 2.87-0.0443 5.74-0.0715 8.61-0.0182 2.1-0.0302 4.19-0.042 6.29-0.0116 1.25-0.0232 2.51-0.0352 3.8 0.0913 3.27 0.473 6.29 1.1 9.5 2.31 0.66 4.62 1.32 7 2-0.00786 1.29-0.00786 1.29-0.0159 2.61-0.0173 3.27-0.0297 6.54-0.0391 9.81-0.00495 1.4-0.0117 2.8-0.0205 4.2-0.0601 9.84 0.289 19.6 1.08 29.4 1.45 0.186 1.45 0.186 2.94 0.375 1.01 0.206 2.02 0.412 3.06 0.625 1.47 2.95 1.12 5.56 1.12 8.85 8.54e-4 0.712 0.00171 1.42 0.00259 2.16 0.00165 2.4-0.00386 4.8-0.00932 7.2-2.82e-4 1.71-1.24e-4 3.43 4.43e-4 5.14 2.88e-4 4.67-0.00561 9.33-0.0126 14-0.00624 4.87-0.00684 9.74-0.00803 14.6-0.00311 9.23-0.0113 18.5-0.0213 27.7-0.0112 10.5-0.0167 21-0.0217 31.5-0.0105 21.6-0.0281 43.2-0.0503 64.8-2.31 0.66-4.62 1.32-7 2-0.33 17.8-0.66 35.6-1 54-2.31 0.66-4.62 1.32-7 2-0.33 9.9-0.66 19.8-1 30-2.31 0.66-4.62 1.32-7 2-0.33 9.9-0.66 19.8-1 30-2.31 0.66-4.62 1.32-7 2-0.33 7.26-0.66 14.5-1 22-2.31 0.66-4.62 1.32-7 2-0.33 7.26-0.66 14.5-1 22-2.31 0.66-4.62 1.32-7 2-0.33 7.26-0.66 14.5-1 22-2.31 0.66-4.62 1.32-7 2-0.33 4.62-0.66 9.24-1 14-2.31 0.66-4.62 1.32-7 2-0.33 4.62-0.66 9.24-1 14-2.31 0.66-4.62 1.32-7 2-0.33 4.62-0.66 9.24-1 14-2.31 0.66-4.62 1.32-7 2-0.33 4.62-0.66 9.24-1 14-2.31 0.66-4.62 1.32-7 2-0.33 4.62-0.66 9.24-1 14-2.31 0.66-4.62 1.32-7 2-0.33 1.98-0.66 3.96-1 6-2.31 0.66-4.62 1.32-7 2-0.33 4.62-0.66 9.24-1 14-2.31 0.66-4.62 1.32-7 2-0.33 4.62-0.66 9.24-1 14-2.31 0.66-4.62 1.32-7 2-0.33 1.98-0.66 3.96-1 6-2.31 0.66-4.62 1.32-7 2-0.33 4.62-0.66 9.24-1 14-2.31 0.66-4.62 1.32-7 2-0.33 1.98-0.66 3.96-1 6-2.31 0.66-4.62 1.32-7 2-0.33 1.98-0.66 3.96-1 6-2.31 0.66-4.62 1.32-7 2-0.33 4.62-0.66 9.24-1 14-2.31 0.33-4.62 0.66-7 1-0.33 2.31-0.66 4.62-1 7-2.31 0.66-4.62 1.32-7 2-0.33 1.98-0.66 3.96-1 6-2.31 0.66-4.62 1.32-7 2-0.33 1.98-0.66 3.96-1 6-2.31 0.66-4.62 1.32-7 2-0.33 4.62-0.66 9.24-1 14-2.31 0.33-4.62 0.66-7 1-0.33 2.31-0.66 4.62-1 7-1.11 0.186-2.23 0.371-3.38 0.562l-3.62 1.44c-1.54 3.51-1.54 3.51-2 7h-6c-0.33 2.31-0.66 4.62-1 7-2.31 0.66-4.62 1.32-7 2-0.33 1.98-0.66 3.96-1 6-2.31 0.66-4.62 1.32-7 2-0.33 2.31-0.66 4.62-1 7h-7c-0.33 2.31-0.66 4.62-1 7-4.62 0.33-9.24 0.66-14 1-0.66 2.31-1.32 4.62-2 7-2.31 0.33-4.62 0.66-7 1-0.33 2.31-0.66 4.62-1 7-2.31 0.66-4.62 1.32-7 2-0.33 1.98-0.66 3.96-1 6-2.31 0.66-4.62 1.32-7 2-0.33 2.31-0.66 4.62-1 7h-7c-0.33 2.31-0.66 4.62-1 7-4.62 0.33-9.24 0.66-14 1-0.186 1.11-0.371 2.23-0.562 3.38-0.712 1.79-0.712 1.79-1.44 3.62-3.62 1.44-3.62 1.44-7 2-0.33 1.98-0.66 3.96-1 6-4.62 0.33-9.24 0.66-14 1-0.186 1.11-0.371 2.23-0.562 3.38-0.712 1.79-0.712 1.79-1.44 3.62-3.62 1.44-3.62 1.44-7 2-0.33 1.98-0.66 3.96-1 6-4.62 0.33-9.24 0.66-14 1-0.66 2.31-1.32 4.62-2 7-4.62 0.33-9.24 0.66-14 1-0.186 1.11-0.371 2.23-0.562 3.38-0.712 1.79-0.712 1.79-1.44 3.62-3.63 1.44-3.63 1.44-7 2-0.33 1.98-0.66 3.96-1 6-4.62 0.33-9.24 0.66-14 1-0.66 2.31-1.32 4.62-2 7-4.62 0.33-9.24 0.66-14 1-0.66 2.31-1.32 4.62-2 7-4.62 0.33-9.24 0.66-14 1-0.66 2.31-1.32 4.62-2 7-7.26 0.33-14.5 0.66-22 1-0.66 2.31-1.32 4.62-2 7-4.62 0.33-9.24 0.66-14 1-0.66 2.31-1.32 4.62-2 7-7.26 0.33-14.5 0.66-22 1-0.66 2.31-1.32 4.62-2 7-4.62 0.33-9.24 0.66-14 1-0.66 2.31-1.32 4.62-2 7-9.9 0.33-19.8 0.66-30 1-0.66 2.31-1.32 4.62-2 7-0.904 0.0251-1.81 0.0501-2.74 0.0759-3.34 0.0949-6.68 0.194-10 0.296-1.45 0.0434-2.9 0.0851-4.34 0.125-2.08 0.0576-4.16 0.121-6.23 0.186-1.25 0.0367-2.5 0.0733-3.79 0.111-2.76-0.117-2.76-0.117-3.87 1.21-0.33 2.31-0.66 4.62-1 7h-39c-0.33 2.31-0.66 4.62-1 7-26.7 0.495-26.7 0.495-54 1-0.66 2.31-1.32 4.62-2 7-34.2 0.942-68.4 1.19-103 1.19-5.52 3.59e-4 -11 0.0121-16.6 0.0259-6.05 0.0146-12.1 0.0182-18.1 0.0176-2.54 0.00118-5.09 0.00559-7.63 0.0133-3.51 0.00972-7.01 0.00696-10.5 8.95e-4 -1.04 0.00562-2.09 0.0112-3.16 0.017-0.946-0.00419-1.89-0.00839-2.87-0.0127-0.823 5.45e-4 -1.65 0.00109-2.49 0.00165-1.99-0.249-1.99-0.249-3.99-2.25-0.33-1.98-0.66-3.96-1-6-15.2-0.33-30.4-0.66-46-1-0.66-1.98-1.32-3.96-2-6-12.5-0.33-25.1-0.66-38-1-0.66-2.64-1.32-5.28-2-8-7.26-0.33-14.5-0.66-22-1-0.66-2.31-1.32-4.62-2-7-7.26-0.33-14.5-0.66-22-1-0.66-2.31-1.32-4.62-2-7-9.9-0.33-19.8-0.66-30-1-0.66-2.31-1.32-4.62-2-7-4.62-0.33-9.24-0.66-14-1-0.66-2.31-1.32-4.62-2-7-4.62-0.33-9.24-0.66-14-1-0.66-2.31-1.32-4.62-2-7-7.26-0.33-14.5-0.66-22-1-0.66-1.98-1.32-3.96-2-6-4.62-0.33-9.24-0.66-14-1-0.66-2.64-1.32-5.28-2-8-4.62-0.33-9.24-0.66-14-1-0.66-2.31-1.32-4.62-2-7-4.62-0.33-9.24-0.66-14-1-0.371-1.11-0.743-2.23-1.12-3.38-1.35-3.24-1.64-3.52-5.06-5.06-0.928-0.186-1.86-0.371-2.81-0.562-0.33-1.98-0.66-3.96-1-6-4.62-0.33-9.24-0.66-14-1-0.66-2.31-1.32-4.62-2-7-4.62-0.33-9.24-0.66-14-1-0.66-1.98-1.32-3.96-2-6-1.18-0.474-2.35-0.949-3.56-1.44-1.13-0.516-2.27-1.03-3.44-1.56-0.938-3.69-0.938-3.69-1-7h-6c-0.66-2.31-1.32-4.62-2-7-4.62-0.33-9.24-0.66-14-1-0.371-1.11-0.743-2.23-1.12-3.38-1.35-3.24-1.64-3.52-5.06-5.06-0.928-0.186-1.86-0.371-2.81-0.562-0.33-1.98-0.66-3.96-1-6-2.31-0.66-4.62-1.32-7-2-0.33-1.98-0.66-3.96-1-6-4.62-0.33-9.24-0.66-14-1-0.66-1.98-1.32-3.96-2-6-1.76-0.712-1.76-0.712-3.56-1.44-1.13-0.516-2.27-1.03-3.44-1.56-0.938-3.69-0.938-3.69-1-7h-6c-0.371-1.11-0.743-2.23-1.12-3.38-1.35-3.24-1.64-3.52-5.06-5.06-0.928-0.186-1.86-0.371-2.81-0.562-0.33-2.31-0.66-4.62-1-7h-6c-2-5.75-2-5.75-2-8h-6c-0.186-1.11-0.371-2.23-0.562-3.38-0.474-1.2-0.949-2.39-1.44-3.62-3.51-1.54-3.51-1.54-7-2-0.33-2.31-0.66-4.62-1-7h-6c-2-5.75-2-5.75-2-8h-6c-0.99-2.97-0.99-2.97-2-6-1.65-0.33-3.3-0.66-5-1v-2h-2c-0.33-2.31-0.66-4.62-1-7h-6c-2-5.75-2-5.75-2-8h-6c-2-5.75-2-5.75-2-8-0.969 0.0206-1.94 0.0412-2.94 0.0625-3.06-0.0625-3.06-0.0625-4.06-1.06-0.235-2.18-0.414-4.37-0.562-6.56l-0.254-3.63c-0.0606-0.927-0.121-1.85-0.184-2.81-1.11-0.371-2.23-0.743-3.38-1.12-1.96-0.816-1.96-0.816-3.62-1.88-0.691-1.99-1.36-3.99-2-6-3.02-1.45-3.02-1.45-6-2-0.33-1.98-0.66-3.96-1-6-2.31-0.66-4.62-1.32-7-2-0.33-4.62-0.66-9.24-1-14-2.31-0.66-4.62-1.32-7-2l-1-6c-2.31-0.66-4.62-1.32-7-2-0.33-4.62-0.66-9.24-1-14-2.31-0.66-4.62-1.32-7-2-0.33-2.31-0.66-4.62-1-7-0.969 0.0206-1.94 0.0412-2.94 0.0625-3.06-0.0625-3.06-0.0625-4.06-1.06-0.235-2.35-0.414-4.71-0.562-7.06-0.0838-1.29-0.168-2.58-0.254-3.91-0.0606-0.999-0.121-2-0.184-3.03-2.31-0.66-4.62-1.32-7-2l-1-6c-2.31-0.66-4.62-1.32-7-2-0.495-7.43-0.495-7.43-1-15h-6c-1.88-1.88-1.39-5.04-1.56-7.56-0.0838-1.2-0.168-2.4-0.254-3.63-0.0606-0.927-0.121-1.85-0.184-2.81-0.969-0.124-1.94-0.247-2.94-0.375-1.01-0.206-2.02-0.412-3.06-0.625-1.48-2.96-1.35-5.84-1.56-9.12-0.0838-1.28-0.168-2.56-0.254-3.88-0.0606-0.987-0.121-1.97-0.184-2.99-2.31-0.66-4.62-1.32-7-2-0.33-4.62-0.66-9.24-1-14-2.31-0.66-4.62-1.32-7-2-0.33-7.26-0.66-14.5-1-22-2.31-0.66-4.62-1.32-7-2-0.33-4.62-0.66-9.24-1-14-2.31-0.66-4.62-1.32-7-2-0.33-7.26-0.66-14.5-1-22-2.31-0.66-4.62-1.32-7-2-0.33-7.26-0.66-14.5-1-22l-7-2c-0.33-7.26-0.66-14.5-1-22l-7-2c-0.33-12.9-0.66-25.7-1-39h-6c-1-1-1-1-1.1-4.89 0.00697-1.74 0.0191-3.48 0.0352-5.22 0.00379-0.919 0.00757-1.84 0.0115-2.78 0.0164-3.95 0.0444-7.89 0.0715-11.8 0.0181-2.88 0.0302-5.75 0.042-8.63 0.0083-0.89 0.0166-1.78 0.0251-2.7 0.0162-4.12-0.0376-7.93-1.09-11.9-1.45 0.0309-1.45 0.0309-2.94 0.0625-3.06-0.0625-3.06-0.0625-4.06-1.06-0.102-2.74-0.139-5.45-0.134-8.19-0.00227-0.869-0.00453-1.74-0.00687-2.63-0.00637-2.94-0.00551-5.87-0.00469-8.81-0.00299-2.1-0.00639-4.19-0.0102-6.29-0.00886-5.71-0.0112-11.4-0.0118-17.1-9.47e-4 -4.76-0.00462-9.51-0.00817-14.3-0.00815-11.2-0.0106-22.4-0.00987-33.7 6.01e-4 -11.6-0.00995-23.2-0.0257-34.8-0.0131-9.93-0.0184-19.9-0.0178-29.8 2.56e-4 -5.94-0.00263-11.9-0.0132-17.8-0.00964-5.59-0.00979-11.2-0.00248-16.8 0.00105-2.06-0.00135-4.11-0.00736-6.17-0.00765-2.8-0.00312-5.59 0.00463-8.39-0.00514-0.822-0.0103-1.64-0.0156-2.49 0.0346-5.6 0.0346-5.6 2.26-7.83 3.12-0.125 3.12-0.125 6 0-0.00444-0.572-0.00888-1.14-0.0135-1.73-0.0442-5.94-0.0744-11.9-0.0964-17.8-0.0101-2.22-0.0237-4.43-0.041-6.65-0.0242-3.18-0.0356-6.36-0.0444-9.55-0.0155-1.49-0.0155-1.49-0.0313-3.02-1.51e-4 -0.921-3.02e-4 -1.84-4.58e-4 -2.79-0.00444-0.813-0.00888-1.63-0.0135-2.46 0.241-1.99 0.241-1.99 2.24-3.99 3.12-0.125 3.12-0.125 6 0l-0.0317-2.72c-0.0341-3.33-0.0591-6.66-0.0781-9.99-0.0101-1.44-0.0237-2.88-0.041-4.32-0.0242-2.07-0.0356-4.14-0.0444-6.21l-0.0317-3.78c0.227-2.98 0.227-2.98 2.23-4.98 3.12-0.125 3.12-0.125 6 0l-0.0317-2.72c-0.0341-3.33-0.0591-6.66-0.0781-9.99-0.0101-1.44-0.0237-2.88-0.041-4.32-0.0242-2.07-0.0356-4.14-0.0444-6.21-0.0105-1.25-0.0209-2.49-0.0317-3.78 0.227-2.98 0.227-2.98 2.23-4.98 3.12-0.125 3.12-0.125 6 0-0.0105-0.656-0.0209-1.31-0.0317-1.99-0.0415-2.96-0.0676-5.92-0.0933-8.89-0.0168-1.03-0.0335-2.07-0.0508-3.13-0.00645-0.986-0.0129-1.97-0.0195-2.99-0.0105-0.911-0.0209-1.82-0.0317-2.76 0.227-2.25 0.227-2.25 2.23-4.25 3.12-0.125 3.12-0.125 6 0-0.0232-0.987-0.0464-1.97-0.0703-2.99-0.018-1.28-0.0361-2.56-0.0547-3.88-0.0232-1.28-0.0464-2.55-0.0703-3.87 0.195-3.26 0.195-3.26 2.2-5.26 3.12-0.125 3.12-0.125 6 0-0.0105-0.656-0.0209-1.31-0.0317-1.99-0.0415-2.96-0.0676-5.92-0.0933-8.89-0.0168-1.03-0.0335-2.07-0.0508-3.13-0.00967-1.48-0.00967-1.48-0.0195-2.99-0.0157-1.37-0.0157-1.37-0.0317-2.76 0.227-2.25 0.227-2.25 2.23-4.25 3.12-0.125 3.12-0.125 6 0-0.0232-0.987-0.0464-1.97-0.0703-2.99-0.018-1.28-0.0361-2.56-0.0547-3.88-0.0232-1.28-0.0464-2.55-0.0703-3.87 0.195-3.26 0.195-3.26 2.2-5.26 3.12-0.125 3.12-0.125 6 0-0.0232-0.987-0.0464-1.97-0.0703-2.99-0.018-1.28-0.0361-2.56-0.0547-3.88-0.0232-1.28-0.0464-2.55-0.0703-3.87 0.195-3.26 0.195-3.26 2.2-5.26 3.12-0.125 3.12-0.125 6 0-0.0232-0.987-0.0464-1.97-0.0703-2.99-0.018-1.28-0.0361-2.56-0.0547-3.88-0.0232-1.28-0.0464-2.55-0.0703-3.87 0.195-3.26 0.195-3.26 2.2-5.26 3.12-0.125 3.12-0.125 6 0-0.0232-0.987-0.0464-1.97-0.0703-2.99-0.018-1.28-0.0361-2.56-0.0547-3.88-0.0232-1.28-0.0464-2.55-0.0703-3.87 0.195-3.26 0.195-3.26 2.2-5.26 3.12-0.125 3.12-0.125 6 0-0.0232-0.987-0.0464-1.97-0.0703-2.99-0.018-1.28-0.0361-2.56-0.0547-3.88-0.0232-1.28-0.0464-2.55-0.0703-3.87 0.195-3.26 0.195-3.26 2.2-5.26 3.12-0.125 3.12-0.125 6 0-0.0412-0.949-0.0825-1.9-0.125-2.88 0.125-3.12 0.125-3.12 2.12-5.12 3.12-0.125 3.12-0.125 6 0-0.0232-0.987-0.0464-1.97-0.0703-2.99-0.018-1.28-0.0361-2.56-0.0547-3.88-0.0232-1.28-0.0464-2.55-0.0703-3.87 0.195-3.26 0.195-3.26 2.2-5.26 3.12-0.125 3.12-0.125 6 0-0.0412-0.949-0.0825-1.9-0.125-2.88 0.125-3.12 0.125-3.12 2.12-5.12 3.12-0.125 3.12-0.125 6 0-0.0232-0.987-0.0464-1.97-0.0703-2.99-0.018-1.28-0.0361-2.56-0.0547-3.88-0.0232-1.28-0.0464-2.55-0.0703-3.87 0.195-3.26 0.195-3.26 2.2-5.26 3.12-0.125 3.12-0.125 6 0-0.0412-0.949-0.0825-1.9-0.125-2.88 0.125-3.12 0.125-3.12 2.12-5.12 3.12-0.125 3.12-0.125 6 0-0.0232-0.987-0.0464-1.97-0.0703-2.99-0.018-1.28-0.0361-2.56-0.0547-3.88-0.0232-1.28-0.0464-2.55-0.0703-3.87 0.195-3.26 0.195-3.26 2.2-5.26 3.12-0.125 3.12-0.125 6 0-0.0412-0.949-0.0825-1.9-0.125-2.88 0.125-3.12 0.125-3.12 2.12-5.12 3.12-0.125 3.12-0.125 6 0-0.0412-0.949-0.0825-1.9-0.125-2.88 0.125-3.12 0.125-3.12 2.12-5.12 3.12-0.125 3.12-0.125 6 0-0.0232-0.987-0.0464-1.97-0.0703-2.99-0.018-1.28-0.0361-2.56-0.0547-3.88-0.0232-1.28-0.0464-2.55-0.0703-3.87 0.195-3.26 0.195-3.26 2.2-5.26 3.12-0.125 3.12-0.125 6 0-0.0412-0.949-0.0825-1.9-0.125-2.88 0.125-3.12 0.125-3.12 2.12-5.12 3.12-0.125 3.12-0.125 6 0-0.0412-0.949-0.0825-1.9-0.125-2.88 0.125-3.12 0.125-3.12 2.12-5.12 3.12-0.125 3.12-0.125 6 0-0.0412-0.949-0.0825-1.9-0.125-2.88 0.125-3.12 0.125-3.12 2.12-5.12 3.12-0.125 3.12-0.125 6 0-0.0412-0.949-0.0825-1.9-0.125-2.88 0.125-3.12 0.125-3.12 2.12-5.12 3.13-0.125 3.13-0.125 6 0-0.0412-0.949-0.0825-1.9-0.125-2.88 0.125-3.12 0.125-3.12 2.12-5.12 3.12-0.125 3.12-0.125 6 0-0.0412-0.949-0.0825-1.9-0.125-2.88 0.125-3.12 0.125-3.12 2.12-5.12 3.12-0.125 3.12-0.125 6 0-0.0412-0.949-0.0825-1.9-0.125-2.88 0.125-3.12 0.125-3.12 2.12-5.12 3.12-0.125 3.12-0.125 6 0-0.0412-0.949-0.0825-1.9-0.125-2.88 0.125-3.12 0.125-3.12 2.12-5.12 3.12-0.125 3.12-0.125 6 0-0.0412-0.949-0.0825-1.9-0.125-2.88 0.125-3.12 0.125-3.12 2.12-5.12 3.12-0.125 3.12-0.125 6 0-0.0412-0.949-0.0825-1.9-0.125-2.88 0.125-3.12 0.125-3.12 2.12-5.12 3.12-0.125 3.12-0.125 6 0-0.0412-0.949-0.0825-1.9-0.125-2.88 0.125-3.12 0.125-3.12 2.12-5.12 3.12-0.125 3.12-0.125 6 0-0.0412-0.949-0.0825-1.9-0.125-2.88 0.125-3.12 0.125-3.12 2.12-5.12 3.12-0.125 3.12-0.125 6 0l-0.125-2.88c0.125-3.13 0.125-3.13 2.12-5.12 3.26-0.195 3.26-0.195 7.12-0.125 1.28 0.018 2.56 0.0361 3.88 0.0547 0.987 0.0232 1.97 0.0464 2.99 0.0703l-0.125-2.88c0.125-3.12 0.125-3.12 2.12-5.12 3.12-0.125 3.12-0.125 6 0l-0.125-2.88c0.125-3.13 0.125-3.13 2.12-5.12 3.13-0.125 3.13-0.125 6 0l-0.0625-2.88c0.0625-3.12 0.0625-3.12 1.06-5.12h15v-6c2-2 2-2 5.12-2.12 0.949 0.0412 1.9 0.0825 2.88 0.125-0.0412-0.949-0.0825-1.9-0.125-2.88 0.125-3.12 0.125-3.12 2.12-5.12 3.26-0.195 3.26-0.195 7.12-0.125l3.88 0.0547c1.48 0.0348 1.48 0.0348 2.99 0.0703-0.0412-0.949-0.0825-1.9-0.125-2.88 0.125-3.12 0.125-3.12 2.12-5.12 3.12-0.125 3.12-0.125 6 0-0.0412-0.949-0.0825-1.9-0.125-2.88 0.125-3.13 0.125-3.13 2.12-5.12 3.26-0.195 3.26-0.195 7.12-0.125l3.88 0.0547c1.48 0.0348 1.48 0.0348 2.99 0.0703-0.0412-0.949-0.0825-1.9-0.125-2.88 0.125-3.12 0.125-3.12 2.12-5.12 3.26-0.195 3.26-0.195 7.12-0.125 1.92 0.0271 1.92 0.0271 3.88 0.0547 1.48 0.0348 1.48 0.0348 2.99 0.0703-0.0412-0.949-0.0825-1.9-0.125-2.88 0.125-3.12 0.125-3.12 2.12-5.12 3.26-0.195 3.26-0.195 7.12-0.125 1.92 0.0271 1.92 0.0271 3.88 0.0547 1.48 0.0348 1.48 0.0348 2.99 0.0703-0.0412-0.949-0.0825-1.9-0.125-2.88 0.125-3.12 0.125-3.12 2.12-5.12 3.26-0.195 3.26-0.195 7.12-0.125 1.92 0.0271 1.92 0.0271 3.88 0.0547 1.48 0.0348 1.48 0.0348 2.99 0.0703-0.0412-0.949-0.0825-1.9-0.125-2.88 0.125-3.12 0.125-3.12 2.12-5.12 3.26-0.195 3.26-0.195 7.12-0.125 1.92 0.0271 1.92 0.0271 3.88 0.0547 0.987 0.0232 1.97 0.0464 2.99 0.0703-0.0619-1.42-0.0619-1.42-0.125-2.88 0.125-3.12 0.125-3.12 2.12-5.12 3.26-0.195 3.26-0.195 7.12-0.125 1.92 0.0271 1.92 0.0271 3.88 0.0547 0.987 0.0232 1.97 0.0464 2.99 0.0703-0.0619-1.42-0.0619-1.42-0.125-2.88 0.125-3.12 0.125-3.12 2.12-5.12 2.25-0.227 2.25-0.227 5.01-0.195 0.986 0.00645 1.97 0.0129 2.99 0.0195 1.03 0.0168 2.07 0.0335 3.13 0.0508 1.04 0.00902 2.08 0.018 3.15 0.0273 2.57 0.0236 5.15 0.0566 7.72 0.0977-0.0619-1.42-0.0619-1.42-0.125-2.88 0.125-3.13 0.125-3.13 2.12-5.12 2.25-0.227 2.25-0.227 5.01-0.195 0.986 0.00645 1.97 0.0129 2.99 0.0195 1.03 0.0168 2.07 0.0335 3.13 0.0508 1.04 0.00902 2.08 0.018 3.15 0.0273 2.57 0.0236 5.15 0.0566 7.72 0.0977-0.0619-1.42-0.0619-1.42-0.125-2.88 0.125-3.13 0.125-3.13 2.12-5.12 2.25-0.227 2.25-0.227 5.01-0.195 0.986 0.00645 1.97 0.0129 2.99 0.0195 1.55 0.0251 1.55 0.0251 3.13 0.0508 1.04 0.00902 2.08 0.018 3.15 0.0273 2.57 0.0236 5.15 0.0566 7.72 0.0977-0.0619-1.42-0.0619-1.42-0.125-2.88 0.125-3.13 0.125-3.13 2.12-5.12 2.25-0.227 2.25-0.227 5.01-0.195 0.986 0.00645 1.97 0.0129 2.99 0.0195 1.03 0.0168 2.07 0.0335 3.13 0.0508 1.04 0.00902 2.08 0.018 3.15 0.0273 2.57 0.0236 5.15 0.0566 7.72 0.0977-0.0619-1.42-0.0619-1.42-0.125-2.88 0.125-3.12 0.125-3.12 2.12-5.12 2.98-0.227 2.98-0.227 6.76-0.195 0.995 0.00424 0.995 0.00424 2.01 0.00858 2.12 0.0112 4.24 0.0363 6.36 0.0617 1.44 0.01 2.87 0.0192 4.31 0.0273 3.52 0.0221 7.04 0.0566 10.6 0.0977-0.0619-1.42-0.0619-1.42-0.125-2.88 0.125-3.12 0.125-3.12 2.12-5.12 1.99-0.241 1.99-0.241 4.45-0.227 0.921 1.51e-4 1.84 3.02e-4 2.79 4.58e-4 0.996 0.0103 1.99 0.0206 3.02 0.0313 1.02 0.00283 2.04 0.00566 3.09 0.00858 3.26 0.0112 6.52 0.0363 9.78 0.0617 2.21 0.01 4.41 0.0192 6.62 0.0273 5.42 0.0221 10.8 0.0556 16.3 0.0977-0.0619-1.42-0.0619-1.42-0.125-2.87 0.227-5.66 2.98-5.36 7.96-5.38zm-7.83 58.3c-0.167 3.08-0.167 3.08 0 6-0.858-0.00666-0.858-0.00666-1.73-0.0135-5.94-0.0442-11.9-0.0744-17.8-0.0964-2.22-0.0101-4.43-0.0237-6.65-0.041-3.18-0.0242-6.36-0.0356-9.55-0.0444-0.996-0.0103-1.99-0.0206-3.02-0.0313-0.921-1.51e-4 -1.84-3.02e-4 -2.79-4.58e-4 -1.22-0.00666-1.22-0.00666-2.46-0.0135-2.22 0.0613-2.22 0.0613-3.99 2.24-0.167 3.08-0.167 3.08 0 6-0.656-0.0105-1.31-0.0209-1.99-0.0317-2.96-0.0415-5.92-0.0676-8.89-0.0933-1.55-0.0251-1.55-0.0251-3.13-0.0508-0.986-0.00645-1.97-0.0129-2.99-0.0195-0.911-0.0105-1.82-0.0209-2.76-0.0317-2.45 0.00834-2.45 0.00834-4.25 2.23-0.167 3.08-0.167 3.08 0 6-0.898-0.0105-1.8-0.0209-2.72-0.0317-3.33-0.0341-6.66-0.0591-9.99-0.0781-1.44-0.0101-2.88-0.0237-4.32-0.041-2.07-0.0242-4.14-0.0356-6.21-0.0444-1.25-0.0105-2.49-0.0209-3.78-0.0317-3.1-0.0895-3.1-0.0895-4.98 2.23-0.167 3.08-0.167 3.08 0 6-1.48-0.0348-1.48-0.0348-2.99-0.0703l-3.88-0.0547c-1.28-0.0232-2.55-0.0464-3.87-0.0703-3.34-0.161-3.34-0.161-5.26 2.2-0.167 3.08-0.167 3.08 0 6-0.656-0.0105-1.31-0.0209-1.99-0.0317-2.96-0.0415-5.92-0.0676-8.89-0.0933-1.03-0.0168-2.07-0.0335-3.13-0.0508-0.986-0.00645-1.97-0.0129-2.99-0.0195-0.911-0.0105-1.82-0.0209-2.76-0.0317-2.45 0.00834-2.45 0.00834-4.25 2.23-0.167 3.08-0.167 3.08 0 6-0.987-0.0232-1.97-0.0464-2.99-0.0703l-3.88-0.0547c-1.91-0.0348-1.91-0.0348-3.87-0.0703-3.34-0.161-3.34-0.161-5.26 2.2-0.167 3.08-0.167 3.08 0 6-0.656-0.0105-1.31-0.0209-1.99-0.0317-2.96-0.0415-5.92-0.0676-8.89-0.0933-1.03-0.0168-2.07-0.0335-3.13-0.0508-0.986-0.00645-1.97-0.0129-2.99-0.0195-0.911-0.0105-1.82-0.0209-2.76-0.0317-2.45 0.00834-2.45 0.00834-4.25 2.23-0.167 3.58-0.167 3.58 0 7h-7c-0.33 2.31-0.66 4.62-1 7-0.656-0.0105-1.31-0.0209-1.99-0.0317-2.96-0.0415-5.92-0.0676-8.89-0.0933-1.55-0.0251-1.55-0.0251-3.13-0.0508-1.48-0.00967-1.48-0.00967-2.99-0.0195-1.37-0.0157-1.37-0.0157-2.76-0.0317-2.45 0.00834-2.45 0.00834-4.25 2.23-0.167 3.08-0.167 3.08 0 6-0.949-0.0412-1.9-0.0825-2.88-0.125-3.23-0.225-3.23-0.225-5.12 2.12-0.167 3.08-0.167 3.08 0 6-0.987-0.0232-1.97-0.0464-2.99-0.0703l-3.88-0.0547c-1.28-0.0232-2.55-0.0464-3.87-0.0703-3.34-0.161-3.34-0.161-5.26 2.2-0.167 3.58-0.167 3.58 0 7h-7c-0.33 2.31-0.66 4.62-1 7-0.987-0.0232-1.97-0.0464-2.99-0.0703l-3.88-0.0547-3.87-0.0703c-3.34-0.161-3.34-0.161-5.26 2.2-0.167 3.08-0.167 3.08 0 6-0.949-0.0412-1.9-0.0825-2.88-0.125-3.23-0.225-3.23-0.225-5.12 2.12-0.167 3.08-0.167 3.08 0 6-0.987-0.0232-1.97-0.0464-2.99-0.0703l-3.88-0.0547-3.87-0.0703c-3.34-0.161-3.34-0.161-5.26 2.2-0.167 3.08-0.167 3.08 0 6-0.949-0.0412-1.9-0.0825-2.88-0.125-3.23-0.225-3.23-0.225-5.12 2.12-0.167 3.08-0.167 3.08 0 6-0.949-0.0412-1.9-0.0825-2.88-0.125-3.23-0.225-3.23-0.225-5.12 2.12-0.167 3.08-0.167 3.08 0 6-0.987-0.0232-1.97-0.0464-2.99-0.0703-1.28-0.018-2.56-0.0361-3.88-0.0547-1.91-0.0348-1.91-0.0348-3.87-0.0703-3.34-0.161-3.34-0.161-5.26 2.2-0.398 1.99-0.738 3.99-1 6-1.98 0.33-3.96 0.66-6 1-0.33 2.31-0.66 4.62-1 7-0.949-0.0412-1.9-0.0825-2.88-0.125-3.23-0.225-3.23-0.225-5.12 2.12-0.398 1.99-0.738 3.99-1 6-1.98 0.33-3.96 0.66-6 1-0.33 2.31-0.66 4.62-1 7-2.31 0.33-4.62 0.66-7 1-0.33 2.31-0.66 4.62-1 7-2.31 0.33-4.62 0.66-7 1-0.66 2.31-1.32 4.62-2 7-1.98 0.33-3.96 0.66-6 1-0.33 2.31-0.66 4.62-1 7-2.31 0.33-4.62 0.66-7 1-0.33 2.31-0.66 4.62-1 7-2.31 0.33-4.62 0.66-7 1-0.33 2.31-0.66 4.62-1 7-2.31 0.33-4.62 0.66-7 1-0.206 0.949-0.413 1.9-0.625 2.88-1.38 3.12-1.38 3.12-4.5 4.5-0.949 0.206-1.9 0.413-2.88 0.625-0.33 2.31-0.66 4.62-1 7-0.949-0.0412-1.9-0.0825-2.88-0.125-3.23-0.225-3.23-0.225-5.12 2.12-0.167 3.08-0.167 3.08 0 6-0.949-0.0412-1.9-0.0825-2.88-0.125-3.23-0.225-3.23-0.225-5.12 2.12-0.244 3.36-0.244 3.36-0.125 7.12 0.018 1.28 0.0361 2.56 0.0547 3.88 0.0232 0.987 0.0464 1.97 0.0703 2.99-0.949-0.0412-1.9-0.0825-2.88-0.125-3.23-0.225-3.23-0.225-5.12 2.12-0.167 3.08-0.167 3.08 0 6-0.949-0.0412-1.9-0.0825-2.88-0.125-3.23-0.225-3.23-0.225-5.12 2.12-0.167 3.08-0.167 3.08 0 6-0.949-0.0412-1.9-0.0825-2.88-0.125-3.23-0.225-3.23-0.225-5.12 2.12-0.244 3.36-0.244 3.36-0.125 7.12 0.018 1.28 0.0361 2.56 0.0547 3.88 0.0232 0.987 0.0464 1.97 0.0703 2.99-0.949-0.0412-1.9-0.0825-2.88-0.125-3.23-0.225-3.23-0.225-5.12 2.12-0.167 3.08-0.167 3.08 0 6-0.949-0.0412-1.9-0.0825-2.88-0.125-3.23-0.225-3.23-0.225-5.12 2.12-0.244 3.36-0.244 3.36-0.125 7.12 0.018 1.28 0.0361 2.56 0.0547 3.88 0.0232 0.987 0.0464 1.97 0.0703 2.99-0.949-0.0412-1.9-0.0825-2.88-0.125-3.23-0.225-3.23-0.225-5.12 2.12-0.244 3.36-0.244 3.36-0.125 7.12 0.018 1.28 0.0361 2.56 0.0547 3.88 0.0232 0.987 0.0464 1.97 0.0703 2.99-0.949-0.0412-1.9-0.0825-2.88-0.125-3.23-0.225-3.23-0.225-5.12 2.12-0.167 3.08-0.167 3.08 0 6-0.949-0.0412-1.9-0.0825-2.88-0.125-3.23-0.225-3.23-0.225-5.12 2.12-0.244 3.36-0.244 3.36-0.125 7.12 0.018 1.28 0.0361 2.56 0.0547 3.88 0.0232 0.987 0.0464 1.97 0.0703 2.99-0.949-0.0412-1.9-0.0825-2.88-0.125-3.23-0.225-3.23-0.225-5.12 2.12-0.244 3.36-0.244 3.36-0.125 7.12 0.018 1.28 0.0361 2.56 0.0547 3.88 0.0232 0.987 0.0464 1.97 0.0703 2.99-0.949-0.0412-1.9-0.0825-2.88-0.125-3.23-0.225-3.23-0.225-5.12 2.12-0.244 3.36-0.244 3.36-0.125 7.12 0.018 1.28 0.0361 2.56 0.0547 3.88 0.0232 0.987 0.0464 1.97 0.0703 2.99-0.949-0.0412-1.9-0.0825-2.88-0.125-3.23-0.225-3.23-0.225-5.12 2.12-0.244 3.36-0.244 3.36-0.125 7.12 0.018 1.28 0.0361 2.56 0.0547 3.88 0.0232 0.987 0.0464 1.97 0.0703 2.99-0.949-0.0412-1.9-0.0825-2.88-0.125-3.23-0.225-3.23-0.225-5.12 2.12-0.278 2.33-0.278 2.33-0.195 5.01 0.00967 1.48 0.00967 1.48 0.0195 2.99 0.0168 1.03 0.0335 2.07 0.0508 3.13l0.0273 3.15c0.0236 2.57 0.0566 5.15 0.0977 7.72-0.949-0.0412-1.9-0.0825-2.88-0.125-3.23-0.225-3.23-0.225-5.12 2.12-0.244 3.36-0.244 3.36-0.125 7.12 0.018 1.28 0.0361 2.56 0.0547 3.88 0.0232 0.987 0.0464 1.97 0.0703 2.99-0.949-0.0412-1.9-0.0825-2.88-0.125-3.23-0.225-3.23-0.225-5.12 2.12-0.278 2.33-0.278 2.33-0.195 5.01 0.00967 1.48 0.00967 1.48 0.0195 2.99 0.0168 1.03 0.0335 2.07 0.0508 3.13l0.0273 3.15c0.0236 2.57 0.0566 5.15 0.0977 7.72-0.949-0.0412-1.9-0.0825-2.88-0.125-3.23-0.225-3.23-0.225-5.12 2.12-0.279 3.11-0.279 3.11-0.195 6.76 0.00424 0.995 0.00424 0.995 0.00858 2.01 0.0112 2.12 0.0363 4.24 0.0617 6.36 0.01 1.44 0.0192 2.87 0.0273 4.31 0.0221 3.52 0.0566 7.04 0.0977 10.6-0.949-0.0412-1.9-0.0825-2.88-0.125-3.23-0.225-3.23-0.225-5.12 2.12-0.279 3.11-0.279 3.11-0.195 6.76 0.00424 0.995 0.00424 0.995 0.00858 2.01 0.0112 2.12 0.0363 4.24 0.0617 6.36 0.01 1.44 0.0192 2.87 0.0273 4.31 0.0221 3.52 0.0566 7.04 0.0977 10.6-0.949-0.0412-1.9-0.0825-2.88-0.125-3.23-0.225-3.23-0.225-5.12 2.12-0.175 2.87-0.231 5.64-0.195 8.51 0.00283 0.841 0.00566 1.68 0.00858 2.55 0.0112 2.69 0.0363 5.38 0.0617 8.07 0.01 1.82 0.0192 3.64 0.0273 5.46 0.0221 4.47 0.0566 8.94 0.0977 13.4-0.949-0.0412-1.9-0.0825-2.88-0.125-3.23-0.225-3.23-0.225-5.12 2.12-0.294 3.04-0.294 3.04-0.227 6.65-4.38e-4 1.02-4.38e-4 1.02-8.85e-4 2.07 0.0014 2.26 0.017 4.52 0.0326 6.79 0.00373 1.57 0.00658 3.13 0.00858 4.7 0.00764 4.13 0.0273 8.25 0.0494 12.4 0.0204 4.21 0.0296 8.42 0.0397 12.6 0.0215 8.26 0.0556 16.5 0.0977 24.8-0.949-0.0412-1.9-0.0825-2.88-0.125-3.23-0.225-3.23-0.225-5.12 2.12-0.301 2.99-0.301 2.99-0.243 6.55-0.0019 0.672-0.0038 1.34-0.00575 2.04-0.00371 2.22 7e-3 4.45 0.0182 6.67 0.00119 1.54 0.00164 3.08 0.00139 4.63 0.00157 3.23 0.00986 6.46 0.0233 9.7 0.017 4.15 0.0208 8.3 0.0201 12.5 2.71e-4 3.18 0.00575 6.37 0.013 9.55 0.00319 1.53 0.00516 3.06 0.00589 4.59 0.00216 2.14 0.0109 4.27 0.0216 6.41 0.00381 1.22 0.00762 2.44 0.0116 3.69-0.176 2.64-0.176 2.64 1.13 3.73 2 0.0408 4 0.0425 6 0 0.0103 0.787 0.0206 1.57 0.0312 2.38 0.0978 7.4 0.2 14.8 0.308 22.2 0.0553 3.81 0.109 7.61 0.158 11.4 0.0476 3.67 0.0999 7.34 0.156 11 0.0204 1.4 0.0392 2.81 0.0561 4.21 0.024 1.96 0.0546 3.92 0.0856 5.88 0.0155 1.12 0.0311 2.23 0.0471 3.38-0.124 2.45-0.124 2.45 1.16 3.51 2 0.0408 4 0.0425 6 0 0.0251 1.18 0.0501 2.35 0.0759 3.56 0.0939 4.35 0.194 8.7 0.296 13 0.0434 1.88 0.0851 3.77 0.125 5.65 0.0575 2.7 0.121 5.41 0.186 8.11 0.0167 0.848 0.0334 1.7 0.0506 2.57-0.27 3.84-0.27 3.84 1.27 7.06h6c0.33 12.9 0.66 25.7 1 39 2.31 0.66 4.62 1.32 7 2 0.33 7.26 0.66 14.5 1 22 2.31 0.66 4.62 1.32 7 2 0.33 7.26 0.66 14.5 1 22 2.31 0.66 4.62 1.32 7 2 0.495 6.93 0.495 6.93 1 14 2.31 0.66 4.62 1.32 7 2 0.495 6.93 0.495 6.93 1 14 2.31 0.66 4.62 1.32 7 2 0.33 7.26 0.66 14.5 1 22 2.31 0.66 4.62 1.32 7 2 0.495 6.93 0.495 6.93 1 14 2.31 0.66 4.62 1.32 7 2 0.495 6.93 0.495 6.93 1 14 1.09 0.186 2.19 0.371 3.31 0.562 3.69 1.44 3.69 1.44 5.31 5 0.454 1.13 0.908 2.27 1.38 3.44 1.65 0.33 3.3 0.66 5 1 0.495 6.93 0.495 6.93 1 14 2.31 0.66 4.62 1.32 7 2 0.0606 0.999 0.121 2 0.184 3.03 0.0838 1.29 0.168 2.58 0.254 3.91 0.0812 1.29 0.162 2.58 0.246 3.9-0.0344 3.02-0.0344 3.02 1.32 4.16 2 0.0408 4 0.0425 6 0l0.625 3.38c0.454 1.2 0.908 2.39 1.38 3.62 1.98 0.66 3.96 1.32 6 2 0.33 4.62 0.66 9.24 1 14 1.98 0.66 3.96 1.32 6 2 1.29 1.69 1.29 1.69 2.06 3.56 0.639 1.13 1.28 2.27 1.94 3.44 1.65 0.33 3.3 0.66 5 1 0.33 4.62 0.66 9.24 1 14 1.09 0.186 2.19 0.371 3.31 0.562 3.69 1.44 3.69 1.44 5.38 5 0.433 1.13 0.866 2.27 1.31 3.44 1.33 0.343 2.66 0.676 4 1 1.09 1.75 1.95 3.52 2.78 5.41 1.41 2.2 1.41 2.2 6.22 2.59 0.33 4.62 0.66 9.24 1 14 1.11 0.206 2.23 0.412 3.38 0.625 1.2 0.454 2.39 0.908 3.62 1.38 0.704 1.99 1.37 3.99 2 6 1.45 0.464 1.45 0.464 2.94 0.938 3.06 1.06 3.06 1.06 4.12 2.73 0.728 1.75 1.34 3.54 1.94 5.33h5c0.124 1.13 0.248 2.27 0.375 3.44 0.206 1.18 0.412 2.35 0.625 3.56 2.83 1.42 5.47 1.35 8.62 1.56 1.78 0.126 1.78 0.126 3.6 0.254 1.37 0.0909 1.37 0.0909 2.77 0.184 0.66 2.31 1.32 4.62 2 7h7c0.99-3.46 0.99-3.46 2-7 1.98-0.33 3.96-0.66 6-1 0.99-3.46 0.99-3.46 2-7 4.62-0.33 9.24-0.66 14-1 0.99-3.46 0.99-3.46 2-7 4.62-0.33 9.24-0.66 14-1 0.99-3.46 0.99-3.46 2-7 7.26-0.33 14.5-0.66 22-1 0.66-2.31 1.32-4.62 2-7 4.62-0.33 9.24-0.66 14-1 0.66-2.31 1.32-4.62 2-7 4.62-0.33 9.24-0.66 14-1 0.66-2.31 1.32-4.62 2-7 7.26-0.33 14.5-0.66 22-1 0.66-2.31 1.32-4.62 2-7 4.62-0.33 9.24-0.66 14-1 0.66-2.31 1.32-4.62 2-7 7.26-0.33 14.5-0.66 22-1 0.66-2.31 1.32-4.62 2-7 4.62-0.33 9.24-0.66 14-1 0.66-2.31 1.32-4.62 2-7 7.26-0.33 14.5-0.66 22-1 0.66-2.31 1.32-4.62 2-7 4.62-0.33 9.24-0.66 14-1 0.66-2.31 1.32-4.62 2-7 7.26-0.33 14.5-0.66 22-1 0.66-2.31 1.32-4.62 2-7 4.62-0.33 9.24-0.66 14-1 0.66-2.31 1.32-4.62 2-7 4.62-0.33 9.24-0.66 14-1 0.66-2.31 1.32-4.62 2-7 1.98-0.33 3.96-0.66 6-1 0.66-2.31 1.32-4.62 2-7 1.98-0.33 3.96-0.66 6-1 0.66-2.31 1.32-4.62 2-7 1.65-0.33 3.3-0.66 5-1 0.66-2.31 1.32-4.62 2-7 2.31-0.33 4.62-0.66 7-1 0.66-2.31 1.32-4.62 2-7 1.98-0.33 3.96-0.66 6-1 0.938-10.7 1.16-21.3 1.17-32 0.00322-1.69 0.00659-3.39 0.0101-5.08 0.00594-3.52 0.00785-7.04 0.00725-10.6-1.02e-4 -4.51 0.0137-9.01 0.0308-13.5 0.0111-3.49 0.0131-6.97 0.0126-10.5 0.00118-1.66 0.00558-3.32 0.0133-4.99 0.0098-2.32 0.00692-4.63 8.95e-4 -6.95 0.00214-1.97 0.00214-1.97 0.00432-3.98-0.239-3.31-0.618-5.55-2.25-8.43-3.05-0.898-3.05-0.898-6-1-0.0376-0.992-0.0376-0.992-0.0759-2-0.116-2.98-0.238-5.96-0.362-8.93-0.0393-1.04-0.0786-2.08-0.119-3.15-0.0419-0.989-0.0838-1.98-0.127-3-0.055-1.37-0.055-1.37-0.111-2.78 0.0246-2.12 0.0246-2.12-1.21-3.13-2-0.0408-4-0.0425-6 0v-7c-2.64-0.66-5.28-1.32-8-2-0.33-4.62-0.66-9.24-1-14-2.31-0.66-4.62-1.32-7-2-0.33-4.62-0.66-9.24-1-14-2.31-0.66-4.62-1.32-7-2-0.33-4.62-0.66-9.24-1-14-2.31-0.66-4.62-1.32-7-2-0.0606-0.915-0.121-1.83-0.184-2.77-0.0838-1.19-0.168-2.38-0.254-3.6-0.0812-1.18-0.162-2.37-0.246-3.59-0.127-2.95-0.127-2.95-1.32-5.04-1.98-0.33-3.96-0.66-6-1-0.33-4.62-0.66-9.24-1-14-2.31-0.66-4.62-1.32-7-2-0.33-4.62-0.66-9.24-1-14-2.31-0.66-4.62-1.32-7-2-0.33-4.62-0.66-9.24-1-14-1.11-0.206-2.23-0.412-3.38-0.625-1.79-0.681-1.79-0.681-3.62-1.38-0.704-1.99-1.37-3.99-2-6-1.98-0.66-3.96-1.32-6-2-0.33-4.62-0.66-9.24-1-14-1.11-0.206-2.23-0.412-3.38-0.625-1.79-0.681-1.79-0.681-3.62-1.38-0.704-1.99-1.37-3.99-2-6-0.99-0.33-1.98-0.66-3-1-0.99-0.33-1.98-0.66-3-1-0.667-2-1.33-4-2-6-1.98-0.66-3.96-1.32-6-2-0.33-7.26-0.66-14.5-1-22-2.31-0.66-4.62-1.32-7-2-0.33-4.62-0.66-9.24-1-14-2.31-0.66-4.62-1.32-7-2v-61c2.31-0.66 4.62-1.32 7-2 0.33-7.26 0.66-14.5 1-22 2.31-0.66 4.62-1.32 7-2v-47c-2.31-0.66-4.62-1.32-7-2-0.66-12.9-1.32-25.7-2-39-1.98-0.33-3.96-0.66-6-1v-149c2.31-0.66 4.62-1.32 7-2 0.33-9.9 0.66-19.8 1-30 2.31-0.66 4.62-1.32 7-2 0.33-7.26 0.66-14.5 1-22 2.31-0.66 4.62-1.32 7-2 0.33-4.62 0.66-9.24 1-14 2.31-0.66 4.62-1.32 7-2 0.33-4.62 0.66-9.24 1-14 3.47-0.99 3.47-0.99 7-2 0.33-4.62 0.66-9.24 1-14 1.11-0.186 2.23-0.371 3.38-0.562 1.2-0.474 2.39-0.949 3.62-1.44 1.54-3.51 1.54-3.51 2-7 1.98-0.33 3.96-0.66 6-1 0.66-2.31 1.32-4.62 2-7 1.98-0.33 3.96-0.66 6-1 0.66-2.31 1.32-4.62 2-7 1.98-0.33 3.96-0.66 6-1 0.66-2.31 1.32-4.62 2-7 1.98-0.33 3.96-0.66 6-1 0.66-2.31 1.32-4.62 2-7 1.98-0.33 3.96-0.66 6-1 0.66-2.31 1.32-4.62 2-7 1.98-0.33 3.96-0.66 6-1 0.66-2.31 1.32-4.62 2-7 4.62-0.33 9.24-0.66 14-1 0.66-2.31 1.32-4.62 2-7 4.62-0.33 9.24-0.66 14-1 0.66-2.31 1.32-4.62 2-7 4.62-0.33 9.24-0.66 14-1 0.66-2.31 1.32-4.62 2-7 7.26-0.33 14.5-0.66 22-1 0.66-2.31 1.32-4.62 2-7 14.8-0.495 14.8-0.495 30-1 0.66-2.31 1.32-4.62 2-7h149c0.66 2.31 1.32 4.62 2 7 7.26 0.33 14.5 0.66 22 1 0.33 1.98 0.66 3.96 1 6 2.83 1.42 5.47 1.35 8.62 1.56 1.19 0.0838 2.38 0.168 3.6 0.254 0.915 0.0606 1.83 0.121 2.77 0.184 0.124 0.969 0.247 1.94 0.375 2.94 0.206 1.01 0.413 2.02 0.625 3.06 2.83 1.42 5.47 1.35 8.62 1.56 1.19 0.0838 2.38 0.168 3.6 0.254 0.915 0.0606 1.83 0.121 2.77 0.184 0.66 2.31 1.32 4.62 2 7 4.62 0.33 9.24 0.66 14 1 0.66 2.31 1.32 4.62 2 7 4.62 0.33 9.24 0.66 14 1 0.33 1.98 0.66 3.96 1 6 2.83 1.42 5.47 1.35 8.62 1.56 1.19 0.0838 2.38 0.168 3.6 0.254 0.915 0.0606 1.83 0.121 2.77 0.184 0.124 0.969 0.247 1.94 0.375 2.94 0.206 1.01 0.412 2.02 0.625 3.06 2.83 1.42 5.47 1.35 8.62 1.56 1.19 0.0838 2.38 0.168 3.6 0.254 0.915 0.0606 1.83 0.121 2.77 0.184 0.124 0.969 0.247 1.94 0.375 2.94 0.206 1.01 0.412 2.02 0.625 3.06 2.83 1.42 5.47 1.35 8.62 1.56 1.19 0.0838 2.38 0.168 3.6 0.254 0.915 0.0606 1.83 0.121 2.77 0.184 0.124 0.969 0.247 1.94 0.375 2.94 0.206 1.01 0.412 2.02 0.625 3.06 2.83 1.42 5.47 1.35 8.62 1.56 1.19 0.0838 2.38 0.168 3.6 0.254 0.915 0.0606 1.83 0.121 2.77 0.184 0.269 0.971 0.539 1.94 0.816 2.94 0.391 1.01 0.781 2.02 1.18 3.06l2.94 0.938c3.06 1.06 3.06 1.06 4.12 2.73 0.728 1.75 1.34 3.54 1.94 5.33h5c0.206 1.11 0.412 2.23 0.625 3.38 0.454 1.2 0.908 2.39 1.38 3.62 2 0.679 4 1.35 6 2 1.05 2.31 2.06 4.64 3 7 1.33 0.343 2.66 0.676 4 1 1.09 1.75 1.95 3.52 2.78 5.41 1.41 2.2 1.41 2.2 6.22 2.59 0.33 4.62 0.66 9.24 1 14 2.31 0.66 4.62 1.32 7 2 0.33 4.62 0.66 9.24 1 14 1.09 0.186 2.19 0.371 3.31 0.562 3.69 1.44 3.69 1.44 5.31 5 0.454 1.13 0.908 2.27 1.38 3.44 1.65 0.33 3.3 0.66 5 1 0.33 9.9 0.66 19.8 1 30 2.31 0.66 4.62 1.32 7 2 0.33 9.9 0.66 19.8 1 30 2.31 0.66 4.62 1.32 7 2 0.33 28.7 0.66 57.4 1 87h-6c-2.22 1.8-2.22 1.8-2.24 4.29 0.00444 0.955 0.00888 1.91 0.0135 2.89 2.27e-4 1.62 2.27e-4 1.62 4.58e-4 3.28 0.0103 1.17 0.0206 2.34 0.0313 3.55 0.00283 1.2 0.00566 2.39 0.00858 3.62 0.0112 3.83 0.0363 7.66 0.0617 11.5 0.01 2.59 0.0192 5.18 0.0273 7.78 0.0221 6.37 0.0556 12.7 0.0977 19.1-0.949-0.0412-1.9-0.0825-2.88-0.125-3.23-0.225-3.23-0.225-5.12 2.12-0.279 3.11-0.279 3.11-0.195 6.76 0.00283 0.663 0.00566 1.33 0.00858 2.01 0.0112 2.12 0.0363 4.24 0.0617 6.36 0.01 1.44 0.0192 2.87 0.0273 4.31 0.0221 3.52 0.0566 7.04 0.0977 10.6-0.949-0.0412-1.9-0.0825-2.88-0.125-3.23-0.225-3.23-0.225-5.12 2.12-0.244 3.36-0.244 3.36-0.125 7.12 0.0271 1.92 0.0271 1.92 0.0547 3.88 0.0232 0.987 0.0464 1.97 0.0703 2.99-0.949-0.0412-1.9-0.0825-2.88-0.125-3.23-0.225-3.23-0.225-5.12 2.12-0.277 2.23-0.277 2.23-0.195 4.79 0.00967 1.41 0.00967 1.41 0.0195 2.85 0.0168 0.985 0.0335 1.97 0.0508 2.98 0.0135 1.49 0.0135 1.49 0.0273 3.01 0.0236 2.46 0.0565 4.91 0.0977 7.37 1.13 0.268 2.27 0.536 3.43 0.812 1.77 0.588 1.77 0.588 3.57 1.19 0.704 1.99 1.37 3.99 2 6 1.98 0.66 3.96 1.32 6 2 0.33 7.26 0.66 14.5 1 22 2.31 0.66 4.62 1.32 7 2 0.33 18.2 0.66 36.3 1 55h-6c-2.32 1.88-2.32 1.88-2.23 4.98 0.0157 1.87 0.0157 1.87 0.0317 3.78 0.00424 0.995 0.00424 0.995 0.00858 2.01 0.0112 2.12 0.0363 4.24 0.0617 6.36 0.01 1.44 0.0192 2.87 0.0273 4.31 0.0221 3.52 0.0566 7.04 0.0977 10.6-0.949-0.0412-1.9-0.0825-2.88-0.125-3.23-0.225-3.23-0.225-5.12 2.12-0.167 3.08-0.167 3.08 0 6-0.949-0.0412-1.9-0.0825-2.88-0.125-3.23-0.225-3.23-0.225-5.12 2.12-0.244 3.36-0.244 3.36-0.125 7.12 0.0271 1.92 0.0271 1.92 0.0547 3.88 0.0232 0.987 0.0464 1.97 0.0703 2.99-0.949-0.0412-1.9-0.0825-2.88-0.125-3.23-0.225-3.23-0.225-5.12 2.12-0.167 3.08-0.167 3.08 0 6-0.949-0.0412-1.9-0.0825-2.88-0.125-3.23-0.225-3.23-0.225-5.12 2.12-0.167 3.08-0.167 3.08 0 6-0.949-0.0412-1.9-0.0825-2.88-0.125-3.23-0.225-3.23-0.225-5.12 2.12-0.244 3.36-0.244 3.36-0.125 7.12 0.0271 1.92 0.0271 1.92 0.0547 3.88 0.0232 0.987 0.0464 1.97 0.0703 2.99-0.949-0.0412-1.9-0.0825-2.88-0.125-3.23-0.225-3.23-0.225-5.12 2.12-0.244 3.36-0.244 3.36-0.125 7.12 0.0271 1.92 0.0271 1.92 0.0547 3.88 0.0232 0.987 0.0464 1.97 0.0703 2.99-0.949-0.0412-1.9-0.0825-2.88-0.125-3.23-0.225-3.23-0.225-5.12 2.12-0.244 3.36-0.244 3.36-0.125 7.12 0.0271 1.92 0.0271 1.92 0.0547 3.88 0.0232 0.987 0.0464 1.97 0.0703 2.99-0.949-0.0412-1.9-0.0825-2.88-0.125-3.23-0.225-3.23-0.225-5.12 2.12-0.244 3.36-0.244 3.36-0.125 7.12 0.0271 1.92 0.0271 1.92 0.0547 3.88 0.0232 0.987 0.0464 1.97 0.0703 2.99-0.949-0.0412-1.9-0.0825-2.88-0.125-3.23-0.225-3.23-0.225-5.12 2.12-0.244 3.36-0.244 3.36-0.125 7.12 0.0271 1.92 0.0271 1.92 0.0547 3.88 0.0232 0.987 0.0464 1.97 0.0703 2.99-0.949-0.0412-1.9-0.0825-2.88-0.125-3.23-0.225-3.23-0.225-5.12 2.12-0.244 3.36-0.244 3.36-0.125 7.12 0.0271 1.92 0.0271 1.92 0.0547 3.88 0.0232 0.987 0.0464 1.97 0.0703 2.99-0.949-0.0412-1.9-0.0825-2.88-0.125-3.23-0.225-3.23-0.225-5.12 2.12-0.167 3.08-0.167 3.08 0 6-0.949-0.0412-1.9-0.0825-2.88-0.125-3.23-0.225-3.23-0.225-5.12 2.12-0.244 3.36-0.244 3.36-0.125 7.12 0.0271 1.92 0.0271 1.92 0.0547 3.88 0.0232 0.987 0.0464 1.97 0.0703 2.99-0.949-0.0412-1.9-0.0825-2.88-0.125-3.23-0.225-3.23-0.225-5.12 2.12-0.244 3.36-0.244 3.36-0.125 7.12 0.0271 1.92 0.0271 1.92 0.0547 3.88 0.0232 0.987 0.0464 1.97 0.0703 2.99-0.949-0.0412-1.9-0.0825-2.88-0.125-3.23-0.225-3.23-0.225-5.12 2.12-0.244 3.36-0.244 3.36-0.125 7.12 0.0271 1.92 0.0271 1.92 0.0547 3.88 0.0232 0.987 0.0464 1.97 0.0703 2.99-0.949-0.0412-1.9-0.0825-2.88-0.125-3.23-0.225-3.23-0.225-5.12 2.12-0.244 3.36-0.244 3.36-0.125 7.12 0.0271 1.92 0.0271 1.92 0.0547 3.88 0.0232 0.987 0.0464 1.97 0.0703 2.99-0.949-0.0412-1.9-0.0825-2.88-0.125-3.23-0.225-3.23-0.225-5.12 2.12-0.247 2.41-0.374 4.7-0.414 7.11-0.0195 0.718-0.0389 1.44-0.059 2.17-0.0606 2.34-0.107 4.68-0.152 7.02-0.0371 1.61-0.0747 3.21-0.113 4.82-0.639 24-0.639 24 0.738 47.9 2.31 0.66 4.62 1.32 7 2 0.33 4.62 0.66 9.24 1 14 2.31 0.66 4.62 1.32 7 2 0.33 1.98 0.66 3.96 1 6 1.09 0.186 2.19 0.371 3.31 0.562 3.69 1.44 3.69 1.44 5.38 5 0.433 1.13 0.866 2.27 1.31 3.44 1.33 0.343 2.66 0.676 4 1 0.969 1.56 0.969 1.56 1.94 3.5 0.931 1.92 0.931 1.92 2.06 3.5 0.846 0.165 1.69 0.33 2.56 0.5 0.804 0.165 1.61 0.33 2.44 0.5 1.81 3.56 1.81 3.56 3 7h5c0.309 1.13 0.619 2.27 0.938 3.44 0.692 3.35 0.692 3.35 2.06 4.56 2.18 0.235 4.37 0.414 6.56 0.562 1.8 0.126 1.8 0.126 3.63 0.254 0.927 0.0606 1.85 0.121 2.81 0.184 0.309 0.969 0.619 1.94 0.938 2.94 0.758 2.9 0.758 2.9 2.06 4.06 2.18 0.235 4.37 0.414 6.56 0.562 1.8 0.126 1.8 0.126 3.63 0.254 0.927 0.0606 1.85 0.121 2.81 0.184 0.309 0.969 0.619 1.94 0.938 2.94 0.758 2.9 0.758 2.9 2.06 4.06 1.56 0.157 3.13 0.251 4.69 0.316 0.944 0.0419 1.89 0.0838 2.86 0.127 1.49 0.059 1.49 0.059 3.01 0.119l3.02 0.131c2.47 0.106 4.94 0.208 7.42 0.307 0.309 0.969 0.619 1.94 0.938 2.94 0.758 2.9 0.758 2.9 2.06 4.06 2.18 0.235 4.37 0.414 6.56 0.562 1.8 0.126 1.8 0.126 3.63 0.254 0.927 0.0606 1.85 0.121 2.81 0.184 0.309 0.969 0.619 1.94 0.938 2.94 0.758 2.9 0.758 2.9 2.06 4.06 2.18 0.235 4.37 0.414 6.56 0.562 1.8 0.126 1.8 0.126 3.63 0.254 0.927 0.0606 1.85 0.121 2.81 0.184 0.186 1.45 0.186 1.45 0.375 2.94 0.206 1.01 0.412 2.02 0.625 3.06 2.41 1.2 4.1 1.2 6.79 1.32 0.941 0.0419 1.88 0.0838 2.85 0.127 1.48 0.059 1.48 0.059 2.98 0.119 0.993 0.0432 1.99 0.0864 3.01 0.131 2.46 0.106 4.91 0.208 7.37 0.307 0.186 1.45 0.186 1.45 0.375 2.94 0.206 1.01 0.412 2.02 0.625 3.06 2.41 1.2 4.1 1.2 6.79 1.32 0.941 0.0419 1.88 0.0838 2.85 0.127 1.48 0.059 1.48 0.059 2.98 0.119 0.993 0.0432 1.99 0.0864 3.01 0.131 2.46 0.106 4.91 0.208 7.37 0.307 0.309 0.969 0.619 1.94 0.938 2.94 0.758 2.9 0.758 2.9 2.06 4.06 1.56 0.157 3.13 0.251 4.69 0.316 0.944 0.0419 1.89 0.0838 2.86 0.127 1.49 0.059 1.49 0.059 3.01 0.119l3.02 0.131c2.47 0.106 4.94 0.208 7.42 0.307 0.99 2.31 1.98 4.62 3 7 4.29 0.33 8.58 0.66 13 1 0.66 1.98 1.32 3.96 2 6 1.88 1.88 5.04 1.39 7.56 1.56 1.8 0.126 1.8 0.126 3.63 0.254 1.39 0.0909 1.39 0.0909 2.81 0.184 0.309 0.969 0.619 1.94 0.938 2.94 0.758 2.9 0.758 2.9 2.06 4.06 1.56 0.157 3.13 0.251 4.69 0.316 0.944 0.0419 1.89 0.0838 2.86 0.127 1.49 0.059 1.49 0.059 3.01 0.119l3.02 0.131c2.47 0.106 4.94 0.208 7.42 0.307l0.375 2.94c0.309 1.52 0.309 1.52 0.625 3.06 2.83 1.42 5.47 1.35 8.62 1.56 1.78 0.126 1.78 0.126 3.6 0.254 1.37 0.0909 1.37 0.0909 2.77 0.184 0.309 0.969 0.619 1.94 0.938 2.94 0.758 2.9 0.758 2.9 2.06 4.06 2.18 0.235 4.37 0.414 6.56 0.562 1.8 0.126 1.8 0.126 3.63 0.254 1.39 0.0909 1.39 0.0909 2.81 0.184l0.375 2.94c0.309 1.52 0.309 1.52 0.625 3.06 2.83 1.42 5.47 1.35 8.62 1.56 1.78 0.126 1.78 0.126 3.6 0.254 1.37 0.0909 1.37 0.0909 2.77 0.184l0.375 2.94c0.309 1.52 0.309 1.52 0.625 3.06 2.5 1.25 4.21 1.11 7.01 1.1 0.986-0.00322 1.97-0.00645 2.99-0.00977 1.03-0.00838 2.07-0.0168 3.13-0.0254 1.04-0.00451 2.08-0.00902 3.15-0.0137 2.57-0.0118 5.15-0.0283 7.72-0.0488 0.66-2.31 1.32-4.62 2-7 4.62-0.33 9.24-0.66 14-1 0.33-4.62 0.66-9.24 1-14 2.31-0.66 4.62-1.32 7-2 0.33-2.64 0.66-5.28 1-8 2.31 0.33 4.62 0.66 7 1 1.23-2.46 1.07-4.28 1-7 1.11-0.186 2.23-0.371 3.38-0.562 1.2-0.474 2.39-0.949 3.62-1.44 1.54-3.51 1.54-3.51 2-7 1.98-0.33 3.96-0.66 6-1 0.33-4.62 0.66-9.24 1-14 1.11-0.186 2.23-0.371 3.38-0.562 1.2-0.474 2.39-0.949 3.62-1.44 1.54-3.51 1.54-3.51 2-7 1.98-0.33 3.96-0.66 6-1 0.33-4.62 0.66-9.24 1-14 1.11-0.186 2.23-0.371 3.38-0.562 1.2-0.474 2.39-0.949 3.62-1.44 1.54-3.51 1.54-3.51 2-7 1.98-0.33 3.96-0.66 6-1 0.66-2.31 1.32-4.62 2-7 1.98-0.33 3.96-0.66 6-1 0.33-4.62 0.66-9.24 1-14 2.31-0.66 4.62-1.32 7-2 0.33-4.62 0.66-9.24 1-14 2.31-0.66 4.62-1.32 7-2 0.33-4.62 0.66-9.24 1-14 2.31-0.66 4.62-1.32 7-2 0.33-4.62 0.66-9.24 1-14 2.31-0.66 4.62-1.32 7-2 0.33-4.62 0.66-9.24 1-14 2.31-0.66 4.62-1.32 7-2 0.33-4.62 0.66-9.24 1-14 2.31-0.66 4.62-1.32 7-2 0.33-7.26 0.66-14.5 1-22 2.31-0.66 4.62-1.32 7-2 0.33-4.62 0.66-9.24 1-14 2.31-0.66 4.62-1.32 7-2 0.33-9.9 0.66-19.8 1-30 2.31-0.66 4.62-1.32 7-2 0.33-7.26 0.66-14.5 1-22 2.31-0.66 4.62-1.32 7-2 0.33-12.5 0.66-25.1 1-38 2.31-0.66 4.62-1.32 7-2 0.33-12.5 0.66-25.1 1-38 2.31-0.66 4.62-1.32 7-2-0.33-52.8-0.66-106-1-160-1.98-0.33-3.96-0.66-6-1 0.00666-0.901 0.00666-0.901 0.0135-1.82 0.0443-6.26 0.0744-12.5 0.0964-18.8 0.01-2.34 0.0237-4.67 0.041-7.01 0.0243-3.36 0.0356-6.72 0.0444-10.1 0.0103-1.04 0.0206-2.08 0.0313-3.15 7.89e-4 -5.12-0.164-9.36-2.23-14.2-1.98-0.33-3.96-0.66-6-1 0.0105-0.897 0.0209-1.79 0.0317-2.72 0.0343-3.36 0.0593-6.72 0.0781-10.1 0.00999-1.45 0.0236-2.9 0.041-4.35 0.161-11.1 0.161-11.1-2.15-21.8-1.98-0.33-3.96-0.66-6-1-0.33-7.26-0.66-14.5-1-22-2.31-0.66-4.62-1.32-7-2-0.33-7.26-0.66-14.5-1-22-2.31-0.66-4.62-1.32-7-2-0.33-7.26-0.66-14.5-1-22-2.31-0.66-4.62-1.32-7-2-0.33-7.26-0.66-14.5-1-22-2.31-0.66-4.62-1.32-7-2-0.33-4.62-0.66-9.24-1-14-2.31-0.66-4.62-1.32-7-2-0.33-4.62-0.66-9.24-1-14-2.31-0.66-4.62-1.32-7-2-0.33-4.62-0.66-9.24-1-14-2.31-0.66-4.62-1.32-7-2-0.33-4.62-0.66-9.24-1-14-2.31-0.66-4.62-1.32-7-2-0.33-4.62-0.66-9.24-1-14-1.11-0.186-2.23-0.371-3.38-0.562l-3.62-1.44c-1.44-3.62-1.44-3.62-2-7-1.98-0.33-3.96-0.66-6-1-0.33-4.62-0.66-9.24-1-14-2.31-0.66-4.62-1.32-7-2-0.33-4.62-0.66-9.24-1-14-1.67-0.309-1.67-0.309-3.38-0.625-1.79-0.681-1.79-0.681-3.62-1.38-0.704-1.99-1.37-3.99-2-6-0.99-0.309-1.98-0.619-3-0.938-0.99-0.351-1.98-0.701-3-1.06-1.38-3.62-1.38-3.62-2-7-1.98-0.33-3.96-0.66-6-1-0.33-4.62-0.66-9.24-1-14-1.11-0.186-2.23-0.371-3.38-0.562l-3.62-1.44c-1.44-3.62-1.44-3.62-2-7-1.98-0.33-3.96-0.66-6-1-0.309-1.42-0.309-1.42-0.625-2.88-0.454-1.03-0.908-2.06-1.38-3.12-0.99-0.309-1.98-0.619-3-0.938-0.99-0.351-1.98-0.701-3-1.06-1.38-3.62-1.38-3.62-2-7-1.98-0.33-3.96-0.66-6-1-0.66-2.31-1.32-4.62-2-7-1.98-0.33-3.96-0.66-6-1-0.33-4.62-0.66-9.24-1-14-1.11-0.186-2.23-0.371-3.38-0.562l-3.62-1.44c-1.44-3.62-1.44-3.62-2-7-1.98-0.33-3.96-0.66-6-1-0.66-2.31-1.32-4.62-2-7-1.98-0.33-3.96-0.66-6-1-0.66-2.31-1.32-4.62-2-7-1.98-0.33-3.96-0.66-6-1-0.66-2.31-1.32-4.62-2-7-4.62-0.33-9.24-0.66-14-1-0.66-1.98-1.32-3.96-2-6-3.52-1.46-3.52-1.46-7-2v-6l-3.38-0.625c-3.62-1.38-3.62-1.38-5.06-4.5-0.186-0.949-0.371-1.9-0.562-2.88h-5v-2h-2v-6c-1.11-0.186-2.23-0.371-3.38-0.562l-3.62-1.44c-1.44-3.62-1.44-3.62-2-7-4.62-0.33-9.24-0.66-14-1-0.66-1.98-1.32-3.96-2-6-0.99-0.309-1.98-0.619-3-0.938-0.99-0.351-1.98-0.701-3-1.06-1.38-3.63-1.38-3.63-2-7-1.98-0.33-3.96-0.66-6-1-0.66-2.31-1.32-4.62-2-7-4.62-0.33-9.24-0.66-14-1-0.66-2.31-1.32-4.62-2-7-1.77-0.0271-3.54-0.0464-5.31-0.0625-0.986-0.0116-1.97-0.0232-2.99-0.0352-2.8-0.0256-2.8-0.0256-5.7 1.1-0.66-2.97-1.32-5.94-2-9-1.98-0.33-3.96-0.66-6-1-0.66-2.31-1.32-4.62-2-7-6.93-0.495-6.93-0.495-14-1-0.66-2.31-1.32-4.62-2-7-6.93-0.495-6.93-0.495-14-1-0.66-2.31-1.32-4.62-2-7-6.93-0.495-6.93-0.495-14-1-0.66-2.31-1.32-4.62-2-7-6.93-0.495-6.93-0.495-14-1-0.66-2.31-1.32-4.62-2-7-6.93-0.495-6.93-0.495-14-1-0.66-2.31-1.32-4.62-2-7-6.93-0.495-6.93-0.495-14-1-0.66-2.31-1.32-4.62-2-7-10.9-0.495-10.9-0.495-22-1-0.66-2.31-1.32-4.62-2-7-6.93-0.495-6.93-0.495-14-1-0.66-2.31-1.32-4.62-2-7-9.9-0.33-19.8-0.66-30-1-0.66-2.31-1.32-4.62-2-7-9.9-0.33-19.8-0.66-30-1-0.66-2.31-1.32-4.62-2-7-15.2-0.33-30.4-0.66-46-1-0.66-2.31-1.32-4.62-2-7-26.7-0.0467-53.4-0.082-80.1-0.104-12.4-0.0103-24.8-0.0244-37.2-0.0473-10.8-0.0199-21.6-0.0328-32.4-0.0373-5.72-0.00261-11.4-0.00878-17.2-0.0233-5.38-0.0135-10.8-0.0178-16.1-0.0148-1.98-5.52e-4 -3.96-0.00456-5.94-0.0122-2.69-0.00988-5.38-0.00758-8.08-0.0021-0.792-0.00583-1.58-0.0117-2.4-0.0177-4.27-0.133-4.27-0.133-7.62 2.26zm72 184c-0.167 3.08-0.167 3.08 0 6-1.14-0.0105-2.28-0.0209-3.46-0.0317-4.22-0.0361-8.45-0.0591-12.7-0.0781-1.83-0.0101-3.66-0.0237-5.49-0.041-2.63-0.0242-5.25-0.0356-7.88-0.0444-0.821-0.0103-1.64-0.0206-2.49-0.0313-2.01-3.99e-4 -4.02 0.104-6.02 0.227-2.35 1.9-2.35 1.9-2.12 5.12 0.0619 1.42 0.0619 1.42 0.125 2.88-0.656-0.0105-1.31-0.0209-1.99-0.0317-2.96-0.0415-5.92-0.0676-8.89-0.0933-1.55-0.0251-1.55-0.0251-3.13-0.0508-0.986-0.00645-1.97-0.0129-2.99-0.0195-0.911-0.0105-1.82-0.0209-2.76-0.0317-2.45 0.00834-2.45 0.00834-4.25 2.23-0.167 3.08-0.167 3.08 0 6-0.656-0.0105-1.31-0.0209-1.99-0.0317-2.96-0.0415-5.92-0.0676-8.89-0.0933-1.55-0.0251-1.55-0.0251-3.13-0.0508-0.986-0.00645-1.97-0.0129-2.99-0.0195-0.911-0.0105-1.82-0.0209-2.76-0.0317-2.45 0.00834-2.45 0.00834-4.25 2.23-0.167 3.08-0.167 3.08 0 6-1.48-0.0348-1.48-0.0348-2.99-0.0703-1.92-0.0271-1.92-0.0271-3.88-0.0547-1.28-0.0232-2.55-0.0464-3.87-0.0703-3.34-0.161-3.34-0.161-5.26 2.2-0.167 3.58-0.167 3.58 0 7h-7c-0.33 2.31-0.66 4.62-1 7-0.987-0.0232-1.97-0.0464-2.99-0.0703-1.92-0.0271-1.92-0.0271-3.88-0.0547-1.91-0.0348-1.91-0.0348-3.87-0.0703-3.34-0.161-3.34-0.161-5.26 2.2-0.398 1.99-0.738 3.99-1 6-1.98 0.33-3.96 0.66-6 1-0.33 2.31-0.66 4.62-1 7-0.949-0.0412-1.9-0.0825-2.88-0.125-3.23-0.225-3.23-0.225-5.12 2.12-0.167 3.08-0.167 3.08 0 6-0.949-0.0412-1.9-0.0825-2.88-0.125-3.23-0.225-3.23-0.225-5.12 2.12-0.244 3.36-0.244 3.36-0.125 7.12 0.018 1.28 0.0361 2.56 0.0547 3.88 0.0232 0.987 0.0464 1.97 0.0703 2.99-0.949-0.0412-1.9-0.0825-2.88-0.125-3.23-0.225-3.23-0.225-5.12 2.12-0.167 3.08-0.167 3.08 0 6-0.949-0.0412-1.9-0.0825-2.88-0.125-3.23-0.225-3.23-0.225-5.12 2.12-0.244 3.36-0.244 3.36-0.125 7.12 0.018 1.28 0.0361 2.56 0.0547 3.88 0.0232 0.987 0.0464 1.97 0.0703 2.99-0.949-0.0412-1.9-0.0825-2.88-0.125-3.23-0.225-3.23-0.225-5.12 2.12-0.278 2.33-0.278 2.33-0.195 5.01 0.00645 0.986 0.0129 1.97 0.0195 2.99 0.0168 1.03 0.0335 2.07 0.0508 3.13 0.00902 1.04 0.018 2.08 0.0273 3.15 0.0236 2.57 0.0566 5.15 0.0977 7.72-0.949-0.0412-1.9-0.0825-2.88-0.125-3.23-0.225-3.23-0.225-5.12 2.12-0.279 3.11-0.279 3.11-0.195 6.76 0.00283 0.663 0.00566 1.33 0.00858 2.01 0.0112 2.12 0.0363 4.24 0.0617 6.36 0.01 1.44 0.0192 2.87 0.0273 4.31 0.0221 3.52 0.0566 7.04 0.0977 10.6-0.949-0.0412-1.9-0.0825-2.88-0.125-3.23-0.225-3.23-0.225-5.12 2.12-0.299 2.43-0.299 2.43-0.241 5.29-0.00275 1.12-0.0055 2.24-0.00833 3.4 0.00719 1.24 0.0144 2.47 0.0218 3.75-2.92e-4 1.3-5.84e-4 2.6-8.85e-4 3.93-5.75e-4 3.56 0.0112 7.13 0.0251 10.7 0.0125 3.72 0.0137 7.44 0.0161 11.2 0.00622 7.05 0.0226 14.1 0.0427 21.2 0.0223 8.03 0.0333 16.1 0.0434 24.1 0.0209 16.5 0.0561 33 0.101 49.5 2.31 0.66 4.62 1.32 7 2 0.33 9.9 0.66 19.8 1 30 2.31 0.66 4.62 1.32 7 2 0.33 7.26 0.66 14.5 1 22 2.31 0.66 4.62 1.32 7 2 0.33 15.5 0.66 31 1 47h-6c-2.35 1.9-2.35 1.9-2.12 5.12 0.0412 0.949 0.0825 1.9 0.125 2.88-0.949-0.0412-1.9-0.0825-2.88-0.125-3.23-0.225-3.23-0.225-5.12 2.12-0.167 3.08-0.167 3.08 0 6-0.949-0.0412-1.9-0.0825-2.88-0.125-3.23-0.225-3.23-0.225-5.12 2.12-0.175 2.8-0.231 5.49-0.195 8.29 0.00283 0.818 0.00566 1.64 0.00858 2.48 0.0112 2.62 0.0363 5.24 0.0617 7.86 0.01 1.77 0.0192 3.55 0.0273 5.32 0.0221 4.35 0.0566 8.7 0.0977 13.1 2.31 0.66 4.62 1.32 7 2 0.33 4.62 0.66 9.24 1 14 1.09 0.186 2.19 0.371 3.31 0.562 3.69 1.44 3.69 1.44 4.82 3.13 0.805 1.93 0.805 1.93 1.87 5.31h5c0.433 1.67 0.433 1.67 0.875 3.38 0.817 3.63 0.817 3.63 3.12 5.62 1.32 0.33 2.64 0.66 4 1 0.33 4.29 0.66 8.58 1 13 1.09 0.186 2.19 0.371 3.31 0.562 3.69 1.44 3.69 1.44 5.31 5 0.454 1.13 0.908 2.27 1.38 3.44 1.65 0.33 3.3 0.66 5 1 0.33 4.62 0.66 9.24 1 14 2.31 0.66 4.62 1.32 7 2 0.33 7.26 0.66 14.5 1 22 2.31 0.66 4.62 1.32 7 2 0.33 7.26 0.66 14.5 1 22 2.31 0.66 4.62 1.32 7 2 0.33 4.62 0.66 9.24 1 14 1.09 0.186 2.19 0.371 3.31 0.562 3.69 1.44 3.69 1.44 5.31 5 0.454 1.13 0.908 2.27 1.38 3.44 1.65 0.33 3.3 0.66 5 1 0.33 4.62 0.66 9.24 1 14 2.31 0.66 4.62 1.32 7 2 0.33 1.98 0.66 3.96 1 6 2.31 0.66 4.62 1.32 7 2 0.33 4.62 0.66 9.24 1 14 1.98 0.66 3.96 1.32 6 2 1.29 1.69 1.29 1.69 2.06 3.56 0.639 1.13 1.28 2.27 1.94 3.44 1.65 0.33 3.3 0.66 5 1 0.33 4.62 0.66 9.24 1 14 2.31 0.66 4.62 1.32 7 2 0.33 49.8 0.66 99.7 1 151-2.31 0.33-4.62 0.66-7 1-0.33 2.31-0.66 4.62-1 7-0.949-0.0412-1.9-0.0825-2.88-0.125-3.23-0.225-3.23-0.225-5.12 2.12-0.244 3.36-0.244 3.36-0.125 7.12 0.018 1.28 0.0361 2.56 0.0547 3.88 0.0232 0.987 0.0464 1.97 0.0703 2.99-0.949-0.0412-1.9-0.0825-2.88-0.125-3.23-0.225-3.23-0.225-5.12 2.12-0.167 3.08-0.167 3.08 0 6-1.48-0.0348-1.48-0.0348-2.99-0.0703-1.28-0.018-2.56-0.0361-3.88-0.0547-1.28-0.0232-2.55-0.0464-3.87-0.0703-3.34-0.161-3.34-0.161-5.26 2.2-0.167 3.08-0.167 3.08 0 6-2.31 0.33-4.62 0.66-7 1-0.33 2.31-0.66 4.62-1 7-0.949-0.0412-1.9-0.0825-2.88-0.125-3.23-0.225-3.23-0.225-5.12 2.12-0.167 3.58-0.167 3.58 0 7-1.13-0.0206-2.27-0.0412-3.44-0.0625-3.38-0.353-3.38-0.353-4.56 1.06-0.0408 2-0.0425 4 0 6-1.48-0.0348-1.48-0.0348-2.99-0.0703-1.28-0.018-2.56-0.0361-3.88-0.0547-1.28-0.0232-2.55-0.0464-3.87-0.0703-3.34-0.161-3.34-0.161-5.26 2.2-0.167 3.08-0.167 3.08 0 6-1.48-0.0348-1.48-0.0348-2.99-0.0703-1.28-0.018-2.56-0.0361-3.88-0.0547-1.28-0.0232-2.55-0.0464-3.87-0.0703-3.34-0.161-3.34-0.161-5.26 2.2-0.167 3.08-0.167 3.08 0 6-1.48-0.0348-1.48-0.0348-2.99-0.0703-1.28-0.018-2.56-0.0361-3.88-0.0547-1.28-0.0232-2.55-0.0464-3.87-0.0703-3.34-0.161-3.34-0.161-5.26 2.2-0.167 3.08-0.167 3.08 0 6-0.656-0.0105-1.31-0.0209-1.99-0.0317-2.96-0.0415-5.92-0.0676-8.89-0.0933-1.03-0.0168-2.07-0.0335-3.13-0.0508-0.986-0.00645-1.97-0.0129-2.99-0.0195-0.911-0.0105-1.82-0.0209-2.76-0.0317-2.45 0.00834-2.45 0.00834-4.25 2.23-0.167 3.08-0.167 3.08 0 6-1.48-0.0348-1.48-0.0348-2.99-0.0703-1.28-0.018-2.56-0.0361-3.88-0.0547-1.28-0.0232-2.55-0.0464-3.87-0.0703-3.34-0.161-3.34-0.161-5.26 2.2-0.167 3.08-0.167 3.08 0 6-0.656-0.0105-1.31-0.0209-1.99-0.0317-2.96-0.0415-5.92-0.0676-8.89-0.0933-1.03-0.0168-2.07-0.0335-3.13-0.0508-0.986-0.00645-1.97-0.0129-2.99-0.0195-0.911-0.0105-1.82-0.0209-2.76-0.0317-2.45 0.00834-2.45 0.00834-4.25 2.23-0.167 3.08-0.167 3.08 0 6-0.656-0.0105-1.31-0.0209-1.99-0.0317-2.96-0.0415-5.92-0.0676-8.89-0.0933-1.03-0.0168-2.07-0.0335-3.13-0.0508-0.986-0.00645-1.97-0.0129-2.99-0.0195-0.911-0.0105-1.82-0.0209-2.76-0.0317-2.45 0.00834-2.45 0.00834-4.25 2.23-0.167 3.08-0.167 3.08 0 6-0.656-0.0105-1.31-0.0209-1.99-0.0317-2.96-0.0415-5.92-0.0676-8.89-0.0933-1.03-0.0168-2.07-0.0335-3.13-0.0508-0.986-0.00645-1.97-0.0129-2.99-0.0195-0.911-0.0105-1.82-0.0209-2.76-0.0317-2.45 0.00834-2.45 0.00834-4.25 2.23-0.167 3.08-0.167 3.08 0 6-1.48-0.0348-1.48-0.0348-2.99-0.0703-1.28-0.018-2.56-0.0361-3.88-0.0547-1.28-0.0232-2.55-0.0464-3.87-0.0703-3.34-0.161-3.34-0.161-5.26 2.2-0.167 3.08-0.167 3.08 0 6-1.48-0.0348-1.48-0.0348-2.99-0.0703-1.28-0.018-2.56-0.0361-3.88-0.0547-1.28-0.0232-2.55-0.0464-3.87-0.0703-3.34-0.161-3.34-0.161-5.26 2.2-0.167 3.08-0.167 3.08 0 6-1.48-0.0348-1.48-0.0348-2.99-0.0703-1.28-0.018-2.56-0.0361-3.88-0.0547l-3.87-0.0703c-3.34-0.161-3.34-0.161-5.26 2.2-0.167 3.08-0.167 3.08 0 6-1.48-0.0348-1.48-0.0348-2.99-0.0703-1.28-0.018-2.56-0.0361-3.88-0.0547l-3.87-0.0703c-3.34-0.161-3.34-0.161-5.26 2.2-0.167 3.08-0.167 3.08 0 6-0.984-0.0157-0.984-0.0157-1.99-0.0317-2.96-0.0415-5.92-0.0676-8.89-0.0933-1.03-0.0168-2.07-0.0335-3.13-0.0508-0.986-0.00645-1.97-0.0129-2.99-0.0195-0.911-0.0105-1.82-0.0209-2.76-0.0317-2.45 0.00834-2.45 0.00834-4.25 2.23-0.167 3.08-0.167 3.08 0 6-0.987-0.0232-1.97-0.0464-2.99-0.0703-1.28-0.018-2.56-0.0361-3.88-0.0547l-3.87-0.0703c-3.34-0.161-3.34-0.161-5.26 2.2-0.244 3.13-0.244 3.13-0.125 6.62 0.018 1.19 0.0361 2.38 0.0547 3.6 0.0232 0.915 0.0464 1.83 0.0703 2.77 2.31 0.33 4.62 0.66 7 1l0.625 3.38c0.454 1.2 0.908 2.39 1.38 3.62 1.99 0.704 3.99 1.37 6 2 1.31 3.06 1.31 3.06 2 6 1.88 1.88 5.04 1.39 7.56 1.56 1.8 0.126 1.8 0.126 3.63 0.254 1.39 0.0909 1.39 0.0909 2.81 0.184 0.33 1.98 0.66 3.96 1 6 2.31 0.33 4.62 0.66 7 1 0.309 1.67 0.309 1.67 0.625 3.38 0.454 1.2 0.908 2.39 1.38 3.62 2 0.679 4 1.35 6 2 1.45 2.28 2.14 4.41 3 7 4.29 0.33 8.58 0.66 13 1l1 6c2.83 1.42 5.47 1.35 8.62 1.56 1.19 0.0838 2.38 0.168 3.6 0.254 1.37 0.0909 1.37 0.0909 2.77 0.184 0.268 0.969 0.536 1.94 0.812 2.94 0.392 1.01 0.784 2.02 1.19 3.06 0.99 0.33 1.98 0.66 3 1 0.99 0.33 1.98 0.66 3 1 1.31 3.06 1.31 3.06 2 6 1.88 1.88 5.04 1.39 7.56 1.56 1.8 0.126 1.8 0.126 3.63 0.254 1.39 0.0909 1.39 0.0909 2.81 0.184 0.124 0.969 0.248 1.94 0.375 2.94 0.206 1.01 0.413 2.02 0.625 3.06 2.83 1.42 5.47 1.35 8.62 1.56 1.19 0.0838 2.38 0.168 3.6 0.254 1.37 0.0909 1.37 0.0909 2.77 0.184 0.124 0.969 0.248 1.94 0.375 2.94 0.206 1.01 0.413 2.02 0.625 3.06 2.83 1.42 5.47 1.35 8.62 1.56 1.78 0.126 1.78 0.126 3.6 0.254 1.37 0.0909 1.37 0.0909 2.77 0.184 0.124 0.969 0.248 1.94 0.375 2.94 0.206 1.01 0.413 2.02 0.625 3.06 2.83 1.42 5.47 1.35 8.62 1.56 1.78 0.126 1.78 0.126 3.6 0.254 1.37 0.0909 1.37 0.0909 2.77 0.184 0.309 0.969 0.619 1.94 0.938 2.94 0.758 2.9 0.758 2.9 2.06 4.06 2.18 0.235 4.37 0.414 6.56 0.562 1.8 0.126 1.8 0.126 3.63 0.254 0.927 0.0606 1.85 0.121 2.81 0.184 0.124 0.969 0.247 1.94 0.375 2.94 0.206 1.01 0.413 2.02 0.625 3.06 2.41 1.2 4.1 1.2 6.79 1.32 0.941 0.0419 1.88 0.0838 2.85 0.127 1.48 0.059 1.48 0.059 2.98 0.119 0.993 0.0432 1.99 0.0864 3.01 0.131 2.46 0.106 4.91 0.208 7.37 0.307 0.124 0.969 0.247 1.94 0.375 2.94 0.206 1.01 0.413 2.02 0.625 3.06 2.41 1.2 4.1 1.2 6.79 1.32 0.941 0.0419 1.88 0.0838 2.85 0.127 1.48 0.059 1.48 0.059 2.98 0.119 0.993 0.0432 1.99 0.0864 3.01 0.131 2.46 0.106 4.91 0.208 7.37 0.307 0.124 0.969 0.247 1.94 0.375 2.94 0.206 1.01 0.413 2.02 0.625 3.06 2.83 1.42 5.47 1.35 8.62 1.56 1.78 0.126 1.78 0.126 3.6 0.254 1.37 0.0909 1.37 0.0909 2.77 0.184 0.124 0.969 0.247 1.94 0.375 2.94 0.206 1.01 0.413 2.02 0.625 3.06 2.85 1.42 5.36 1.22 8.54 1.32 1.3 0.0419 2.6 0.0838 3.95 0.127 1.38 0.0398 2.76 0.0795 4.14 0.119 1.39 0.0432 2.78 0.0868 4.16 0.131 3.4 0.106 6.81 0.208 10.2 0.307 0.124 0.969 0.247 1.94 0.375 2.94 0.206 1.01 0.413 2.02 0.625 3.06 2.85 1.42 5.36 1.22 8.54 1.32 1.3 0.0419 2.6 0.0838 3.95 0.127 1.38 0.0398 2.76 0.0795 4.14 0.119 1.39 0.0432 2.78 0.0868 4.16 0.131 3.4 0.106 6.81 0.208 10.2 0.307 0.66 2.31 1.32 4.62 2 7 15.2 0.33 30.4 0.66 46 1 0.66 2.31 1.32 4.62 2 7h191c0.66-2.31 1.32-4.62 2-7 12.5-0.33 25.1-0.66 38-1 0.66-2.31 1.32-4.62 2-7 9.9-0.33 19.8-0.66 30-1 0.66-2.31 1.32-4.62 2-7 7.26-0.33 14.5-0.66 22-1 0.66-2.31 1.32-4.62 2-7 7.26-0.33 14.5-0.66 22-1 0.66-2.31 1.32-4.62 2-7 7.26-0.33 14.5-0.66 22-1 0.66-2.31 1.32-4.62 2-7 4.62-0.33 9.24-0.66 14-1 0.66-2.31 1.32-4.62 2-7 4.62-0.33 9.24-0.66 14-1 0.66-2.31 1.32-4.62 2-7 4.29-0.33 8.58-0.66 13-1 1.49-3.46 1.49-3.46 3-7 4.62-0.33 9.24-0.66 14-1 0.66-2.31 1.32-4.62 2-7 4.62-0.33 9.24-0.66 14-1 0.66-2.31 1.32-4.62 2-7 4.62-0.33 9.24-0.66 14-1 0.66-2.31 1.32-4.62 2-7 1.98-0.33 3.96-0.66 6-1 0.33-2.64 0.66-5.28 1-8 0.541 0.174 1.08 0.348 1.64 0.527 2.85 0.57 5.23 0.344 8.11 0.0352 0.985-0.102 1.97-0.204 2.98-0.309 0.748-0.0838 1.5-0.168 2.27-0.254 0.66-2.31 1.32-4.62 2-7 1.98-0.33 3.96-0.66 6-1 0.66-2.31 1.32-4.62 2-7 4.62-0.33 9.24-0.66 14-1 0.66-2.31 1.32-4.62 2-7 1.98-0.33 3.96-0.66 6-1 0.66-2.31 1.32-4.62 2-7 4.62-0.33 9.24-0.66 14-1 0.66-2.31 1.32-4.62 2-7 1.98-0.33 3.96-0.66 6-1 0.66-2.31 1.32-4.62 2-7 1.98-0.33 3.96-0.66 6-1 0.0269-2.48 0.0468-4.96 0.0625-7.44 0.00838-0.707 0.0168-1.41 0.0254-2.14 0.00865-1.81-0.0357-3.61-0.0879-5.42-1.94-1.94-5.47-1.4-8.06-1.56-1.29-0.0838-2.58-0.168-3.91-0.254-0.999-0.0606-2-0.121-3.03-0.184-0.66-2.31-1.32-4.62-2-7-7.26-0.33-14.5-0.66-22-1-0.66-2.31-1.32-4.62-2-7-7.26-0.33-14.5-0.66-22-1-0.66-2.31-1.32-4.62-2-7-4.62-0.33-9.24-0.66-14-1-0.66-2.31-1.32-4.62-2-7-4.62-0.33-9.24-0.66-14-1-0.66-2.31-1.32-4.62-2-7-7.26-0.33-14.5-0.66-22-1-0.66-2.31-1.32-4.62-2-7-7.26-0.33-14.5-0.66-22-1-0.66-2.31-1.32-4.62-2-7-4.62-0.33-9.24-0.66-14-1-0.66-2.31-1.32-4.62-2-7-7.26-0.33-14.5-0.66-22-1-0.66-2.31-1.32-4.62-2-7-7.26-0.33-14.5-0.66-22-1-0.66-2.31-1.32-4.62-2-7-4.62-0.33-9.24-0.66-14-1-0.66-2.31-1.32-4.62-2-7-4.62-0.33-9.24-0.66-14-1-0.66-1.98-1.32-3.96-2-6-0.99-0.309-1.98-0.619-3-0.938-0.99-0.351-1.98-0.701-3-1.06-1.38-3.62-1.38-3.62-2-7-4.62-0.33-9.24-0.66-14-1-0.66-2.31-1.32-4.62-2-7-4.62-0.33-9.24-0.66-14-1-0.66-1.98-1.32-3.96-2-6-0.99-0.309-1.98-0.619-3-0.938-0.99-0.351-1.98-0.701-3-1.06-1.37-3.62-1.37-3.62-2-7-1.98-0.33-3.96-0.66-6-1-0.206-0.949-0.413-1.9-0.625-2.88-0.454-1.03-0.908-2.06-1.38-3.12-0.99-0.309-1.98-0.619-3-0.938-0.99-0.351-1.98-0.701-3-1.06-1.38-3.62-1.38-3.62-2-7-1.98-0.33-3.96-0.66-6-1-0.66-2.31-1.32-4.62-2-7-1.98-0.33-3.96-0.66-6-1-0.33-7.26-0.66-14.5-1-22-2.31-0.66-4.62-1.32-7-2-0.33-7.26-0.66-14.5-1-22-2.31-0.66-4.62-1.32-7-2v-101c2.31-0.66 4.62-1.32 7-2 0.33-7.26 0.66-14.5 1-22 2.31-0.66 4.62-1.32 7-2 1.54-3.51 1.54-3.51 2-7 1.98-0.33 3.96-0.66 6-1 0.33-4.62 0.66-9.24 1-14 1.11-0.186 2.23-0.371 3.38-0.562 1.2-0.474 2.39-0.949 3.62-1.44 1.54-3.51 1.54-3.51 2-7 1.98-0.33 3.96-0.66 6-1 0.33-4.62 0.66-9.24 1-14 1.11-0.186 2.23-0.371 3.38-0.562 1.2-0.474 2.39-0.949 3.62-1.44 1.54-3.51 1.54-3.51 2-7 1.98-0.33 3.96-0.66 6-1 0.33-4.62 0.66-9.24 1-14 2.31-0.66 4.62-1.32 7-2 0.33-4.62 0.66-9.24 1-14 2.31-0.66 4.62-1.32 7-2 0.33-4.62 0.66-9.24 1-14 2.31-0.66 4.62-1.32 7-2 0.33-7.26 0.66-14.5 1-22 2.31-0.66 4.62-1.32 7-2 0.33-4.62 0.66-9.24 1-14 2.31-0.66 4.62-1.32 7-2 0.33-4.62 0.66-9.24 1-14 1.11-0.186 2.23-0.371 3.38-0.562 1.2-0.474 2.39-0.949 3.62-1.44 1.39-3.49 1.39-3.49 2-7 2.7-1.35 5.12-1.34 8.12-1.56 1.94-0.144 3.88-0.289 5.88-0.438 0.33-4.29 0.66-8.58 1-13 2.31-0.66 4.62-1.32 7-2v-55c-2.31-0.66-4.62-1.32-7-2-0.33-4.62-0.66-9.24-1-14-2.31-0.66-4.62-1.32-7-2v-53c2.31-0.66 4.62-1.32 7-2 0.33-4.62 0.66-9.24 1-14 2.31-0.66 4.62-1.32 7-2 0.33-12.5 0.66-25.1 1-38 2.31-0.66 4.62-1.32 7-2 0.33-15.2 0.66-30.4 1-46 2.31-0.66 4.62-1.32 7-2-0.33-18.5-0.66-37-1-56-1.98-0.33-3.96-0.66-6-1 0.0105-0.862 0.0209-1.72 0.0317-2.61 0.0344-3.24 0.0593-6.47 0.0781-9.71 0.00998-1.39 0.0236-2.79 0.041-4.18 0.0946-7.76-0.0368-15-2.15-22.5-1.98-0.33-3.96-0.66-6-1-0.33-7.26-0.66-14.5-1-22-2.31-0.66-4.62-1.32-7-2-0.33-4.62-0.66-9.24-1-14-2.31-0.66-4.62-1.32-7-2-0.33-4.62-0.66-9.24-1-14-1.67-0.278-1.67-0.278-3.38-0.562-1.2-0.474-2.39-0.949-3.62-1.44-1.44-3.62-1.44-3.62-2-7-1.98-0.33-3.96-0.66-6-1-0.66-2.31-1.32-4.62-2-7-6.93-0.495-6.93-0.495-14-1-0.66-1.98-1.32-3.96-2-6-0.99-0.309-1.98-0.619-3-0.938-0.99-0.351-1.98-0.701-3-1.06-0.66-2.31-1.32-4.62-2-7-10.9-0.495-10.9-0.495-22-1-0.66-1.98-1.32-3.96-2-6h-14c-0.228-2.05-0.456-4.1-0.684-6.15-0.135-1.86-0.135-1.86-1.32-2.85-2.35-0.235-4.71-0.414-7.06-0.562-1.29-0.0838-2.58-0.168-3.91-0.254l-3.03-0.184c-0.66-2.31-1.32-4.62-2-7-6.93-0.495-6.93-0.495-14-1-0.66-1.98-1.32-3.96-2-6-0.99-0.33-1.98-0.66-3-1-0.99-0.33-1.98-0.66-3-1-0.66-1.98-1.32-3.96-2-6-4.62-0.66-9.24-1.32-14-2-0.66-2.31-1.32-4.62-2-7-10.9-0.495-10.9-0.495-22-1-0.66-2.31-1.32-4.62-2-7-15.2-0.33-30.4-0.66-46-1-0.66-2.31-1.32-4.62-2-7-5.23-0.0494-10.5-0.0857-15.7-0.11-1.78-0.0101-3.56-0.0237-5.34-0.041-2.56-0.0242-5.11-0.0356-7.67-0.0444-1.2-0.0155-1.2-0.0155-2.42-0.0313-4.4-0.183-4.4-0.183-7.87 2.23zm280 191v42h1v-42h-1zm-520 112v16h1v-16h-1zm952 112v136h1v-136h-1zm-468 79v1h13v-1h-13zm-380 314v7h1v-7h-1zm472 283 1 4z" fill="#FCFDFF"/>
<path transform="translate(70,693)" d="m0 0h1v134h-1v-134z" fill="#FCFDFF"/>
<path transform="translate(510,473)" d="m0 0h1v130h-1v-130z" fill="#FCFDFF"/>
<path transform="translate(638,1020)" d="m0 0h1v77h-1v-77z" fill="#FCFDFF"/>
<path transform="translate(951,1060)" d="m0 0h1v21h-1v-21z"/>
<path transform="translate(1511,641)" d="m0 0h1v15h-1v-15z"/>
<path transform="translate(1462,677)" d="m0 0h1v8h-1v-8z" fill="#FCFDFF"/>
<path transform="translate(78,908)" d="m0 0h1v7h-1v-7z" fill="#FCFDFF"/>
<path transform="translate(1006,674)" d="m0 0h1v5h-1v-5z" fill="#FCFDFF"/>
<path transform="translate(1454,639)" d="m0 0h1v5h-1v-5z" fill="#FCFDFF"/>
<path transform="translate(1314,1230)" d="m0 0 4 1z" fill="#FCFDFF"/>
<path transform="translate(1519,691)" d="m0 0 1 4z"/>
<path transform="translate(370,198)" d="m0 0 4 1z" fill="#FCFDFF"/>
<path transform="translate(1154,1366)" d="m0 0 2 1z" fill="#FCFDFF"/>
<path transform="translate(339,1254)" d="m0 0 2 1z" fill="#FCFDFF"/>
</svg>
